<svg width="135" height="135" xmlns="http://www.w3.org/2000/svg" xmlns:xlink="http://www.w3.org/1999/xlink" xml:space="preserve" overflow="hidden"><defs><clipPath id="clip0"><rect x="320" y="581" width="135" height="135"/></clipPath></defs><g clip-path="url(#clip0)" transform="translate(-320 -581)"><path d="M454 648.5C454 685.227 424.228 715 387.5 715 350.773 715 321 685.227 321 648.5 321 611.773 350.773 582 387.5 582 424.228 582 454 611.773 454 648.5Z" fill="#23509E" fill-rule="evenodd"/><path d="M387.5 581.966C350.813 581.966 320.966 611.813 320.966 648.499 320.966 685.188 350.813 715.035 387.5 715.035 424.187 715.035 454.034 685.188 454.034 648.499 454.034 611.813 424.187 581.966 387.5 581.966ZM387.5 716C350.279 716 320 685.72 320 648.499 320 611.281 350.279 581 387.5 581 424.719 581 455 611.281 455 648.499 455 685.72 424.719 716 387.5 716Z" fill="#FFFFFF" fill-rule="evenodd"/><path d="M387.499 710C353.533 710 326 682.465 326 648.499 326 614.535 353.533 587 387.499 587 421.465 587 449 614.535 449 648.499 449 682.465 421.465 710 387.499 710Z" fill="#F3F020" fill-rule="evenodd"/><path d="M416.877 642.33C416.874 642.333 416.869 642.337 416.865 642.34L416.877 642.33 417.082 642.154 416.848 642.352C416.74 642.426 416.623 642.493 416.503 642.543L416.491 642.55C416.377 642.598 416.253 642.634 416.124 642.661L416.107 642.668C415.726 642.739 415.069 643.028 414.251 643.458 413.792 643.699 413.278 643.988 412.733 644.312L417.697 644.292 418.662 644.292 419.095 645.105 419.14 645.188 419.145 645.195 425.835 657.813 425.841 657.831 425.88 657.907 426.257 658.641 425.902 659.389 425.867 659.463 425.88 659.446 418.236 676.132 418.223 676.151 418.18 676.244 417.761 677.126 412.265 677.126 412.276 692.227 412.276 692.265 412.27 692.425 412.232 694 410.761 693.99 410.61 693.988 371.522 693.825 371.426 693.823 370.483 693.818 370.075 692.905 370.034 692.812 370.034 692.819C369.7 692.079 369.45 691.309 369.279 690.531L369.279 690.525C369.104 689.721 369.016 688.918 369.016 688.143 369.016 687.455 369.088 686.747 369.231 686.033L365.337 686 364.404 686 363.966 685.23 363.921 685.152 363.928 685.152C363.436 684.301 363.025 683.463 362.724 682.628 362.401 681.73 362.2 680.834 362.154 679.928 362.107 679.009 362.22 678.086 362.527 677.149L362.532 677.144C362.569 677.028 362.612 676.915 362.656 676.8L355.324 676.8 354.911 675.899 347.345 659.379 347 658.626 347.387 657.898 353.991 645.439 354.425 644.619 369.338 644.619 369.338 629.944C369.338 629.797 369.35 629.65 369.367 629.507 369.157 629.363 368.959 629.194 368.783 629.007 368.15 628.333 367.756 627.403 367.756 626.379L367.756 606.721C367.756 605.696 368.15 604.764 368.783 604.092 369.415 603.419 370.288 603 371.251 603L401.696 603C402.659 603 403.534 603.419 404.165 604.092 404.797 604.764 405.191 605.696 405.191 606.721L405.191 626.379C405.191 627.403 404.797 628.333 404.165 629.007 403.902 629.288 403.592 629.523 403.255 629.703 403.255 629.71 403.257 629.717 403.257 629.724 403.257 629.797 403.25 629.893 403.238 630.005 403.238 630.008 403.238 630.015 403.238 630.015L403.238 630.005 403.238 629.993C403.226 630.135 403.214 630.226 403.204 630.285L407.416 627.392 407.41 627.399C407.562 627.296 407.723 627.21 407.887 627.15 408.057 626.882 408.278 626.646 408.548 626.46L416.374 621.074 416.369 621.082C416.905 620.713 417.529 620.603 418.101 620.724 418.684 620.847 419.229 621.21 419.588 621.778L419.588 621.771 426.607 632.833C426.97 633.405 427.073 634.079 426.951 634.706 426.829 635.329 426.48 635.905 425.937 636.278L418.112 641.664 418.117 641.657C417.833 641.853 417.522 641.975 417.207 642.031 417.109 642.141 416.999 642.242 416.877 642.33Z" fill="#FFFFFF" fill-rule="evenodd"/><path d="M371.399 693.095 398.766 693.211 398.766 671.971 398.371 671.556C398.42 671.937 398.438 672.317 398.422 672.689 398.402 673.18 398.317 673.683 398.175 674.184L398.182 674.175C397.904 675.151 397.395 675.998 396.652 676.687 396.481 676.844 396.297 676.994 396.103 677.133 396.308 677.566 396.492 678.004 396.647 678.439 397.021 679.497 397.228 680.556 397.23 681.591 397.232 682.682 397.026 683.759 396.593 684.813 396.177 685.826 395.559 686.8 394.723 687.729L394.702 687.758 394.147 688.353 393.359 688.353 371.404 688.224C371.339 688.439 371.283 688.651 371.236 688.864 371.106 689.448 371.039 690.036 371.039 690.621 371.039 691.218 371.102 691.819 371.225 692.404 371.274 692.635 371.331 692.865 371.399 693.095ZM421.31 620.605 421.31 620.598 428.593 632.147C428.969 632.742 429.077 633.447 428.949 634.102 428.823 634.751 428.462 635.353 427.896 635.742L419.777 641.363 419.785 641.358C419.488 641.562 419.166 641.691 418.841 641.747 418.739 641.862 418.623 641.968 418.497 642.059L418.71 641.878 418.466 642.083C418.355 642.16 418.233 642.229 418.109 642.282L418.096 642.289C417.979 642.339 417.85 642.378 417.715 642.406L417.698 642.412C417.301 642.486 416.621 642.788 415.773 643.237 415.297 643.489 414.764 643.791 414.196 644.13L419.348 644.108 420.348 644.108 420.798 644.957 420.845 645.044 420.85 645.051 427.791 658.222 427.798 658.241 427.838 658.32 428.228 659.088 427.862 659.868 427.825 659.947 427.837 659.928 419.907 677.347 419.895 677.368 419.849 677.463 419.415 678.384 413.713 678.384 413.721 694.149 413.721 694.188 413.718 694.356 413.68 696 412.151 695.988 411.996 695.986 371.443 695.817 371.343 695.815 370.363 695.81 369.941 694.857 369.898 694.759 369.898 694.766C369.553 693.995 369.29 693.19 369.113 692.378L369.113 692.371C368.933 691.533 368.841 690.695 368.842 689.885 368.842 689.167 368.916 688.428 369.065 687.682L365.024 687.648 364.057 687.648 363.602 686.844 363.556 686.762 363.561 686.762C363.053 685.874 362.626 685 362.314 684.129 361.979 683.19 361.771 682.256 361.724 681.31 361.674 680.351 361.791 679.387 362.11 678.408L362.115 678.401C362.154 678.283 362.197 678.163 362.243 678.043L354.637 678.043 354.209 677.103 346.358 659.858 346 659.07 346.4 658.311 353.254 645.305 353.705 644.449 369.176 644.449 369.176 629.13C369.176 628.976 369.188 628.823 369.207 628.674 368.987 628.521 368.783 628.347 368.599 628.151 367.943 627.448 367.534 626.476 367.534 625.407L367.534 604.886C367.534 603.816 367.943 602.844 368.599 602.142 369.255 601.439 370.162 601 371.16 601L402.746 601C403.746 601 404.654 601.439 405.308 602.142 405.964 602.844 406.372 603.816 406.372 604.886L406.372 625.407C406.372 626.476 405.964 627.448 405.308 628.151 405.035 628.444 404.713 628.691 404.364 628.878 404.364 628.885 404.366 628.892 404.366 628.9 404.366 628.976 404.359 629.075 404.348 629.193L404.348 629.18C404.335 629.329 404.322 629.425 404.312 629.485L408.682 626.466 408.675 626.473C408.832 626.363 409 626.277 409.171 626.212 409.346 625.933 409.576 625.688 409.857 625.492L417.976 619.871 417.971 619.878C418.526 619.492 419.173 619.379 419.767 619.504 420.372 619.633 420.937 620.012 421.31 620.605ZM411.485 627.469 418.476 638.749 418.657 639.036 426.345 633.711 419.088 622.202 411.485 627.469ZM401.43 650.886C401.408 650.795 401.385 650.707 401.365 650.611L401.365 650.604C401.273 650.163 401.188 649.661 401.116 649.117 401.04 648.536 400.982 648.01 400.939 647.554 400.939 647.545 400.938 647.537 400.938 647.53 400.849 646.961 400.772 646.393 400.713 645.824 400.497 643.837 400.437 640.904 400.49 638.982 400.543 637.09 400.709 635.19 400.95 633.332 401.159 631.712 401.42 630.154 401.708 628.669L371.745 628.669 371.745 650.982 401.43 650.886ZM401.168 693.255 410.962 693.297 410.943 666.653 405.822 654.869 405.03 653.144 402.782 653.151C402.61 653.206 402.428 653.25 402.23 653.283 402.007 653.322 401.801 653.343 401.614 653.343L383.053 653.343 383.053 667.56 388.932 667.56 391.562 664.752 391.678 664.626 392.819 663.409 393.97 664.613 394.088 664.736 400.616 670.724 400.668 670.778 401.168 671.3 401.168 693.255ZM402.726 653.151 402.721 653.151 402.392 653.207 402.726 653.151ZM371.711 653.129 364.595 653.153C364.372 653.468 364.188 653.782 364.044 654.094 363.844 654.533 363.726 654.98 363.707 655.435 363.689 655.904 363.774 656.396 363.977 656.915 364.132 657.312 364.354 657.726 364.646 658.16L381.149 658.186 381.149 653.223 372.623 653.223C372.315 653.223 372.01 653.194 371.711 653.129ZM364.665 660.447C364.397 660.927 364.174 661.404 364.004 661.879 363.76 662.564 363.622 663.252 363.609 663.939 363.593 664.621 363.699 665.316 363.93 666.019 364.093 666.507 364.319 667.011 364.612 667.529L381.149 667.56 381.149 660.476 364.665 660.447ZM364.431 670.092C364.239 670.39 364.101 670.685 364.013 670.98L364.013 670.989C363.886 671.407 363.852 671.866 363.893 672.355L363.893 672.344C363.946 672.953 364.111 673.617 364.366 674.316 364.556 674.834 364.791 675.367 365.061 675.902L393.457 675.902C393.8 675.749 394.067 675.555 394.262 675.329 394.443 675.109 394.571 674.841 394.639 674.534L394.635 674.54C394.677 674.348 394.702 674.141 394.709 673.925 394.716 673.69 394.704 673.46 394.672 673.245 394.639 673.011 394.585 672.778 394.51 672.559 394.437 672.339 394.34 672.125 394.224 671.917 393.923 671.393 393.469 670.92 392.885 670.61 392.335 670.318 391.654 670.171 390.85 670.246L390.833 670.185 390.717 670.217 380.355 670.217 380.355 670.126 364.431 670.092ZM365.075 678.557C364.854 679.02 364.683 679.469 364.562 679.915 364.378 680.59 364.31 681.267 364.338 681.941 364.338 681.944 364.336 681.946 364.338 681.95L364.338 681.941C364.338 681.944 364.338 681.946 364.338 681.95 364.366 682.664 364.499 683.392 364.714 684.132 364.857 684.626 365.037 685.137 365.252 685.666L369.517 685.711 369.517 685.708 371.174 685.72 393.805 685.874C394.062 685.433 394.263 684.994 394.408 684.552L394.415 684.543C394.616 683.935 394.713 683.303 394.711 682.653 394.711 682.009 394.577 681.259 394.348 680.467 394.164 679.838 393.923 679.192 393.64 678.557L365.075 678.557ZM403.38 632.819C403.331 633.205 403.286 633.596 403.246 633.99 403.273 634.554 403.298 635.321 403.257 636.248 403.138 639.006 403.09 644.164 403.32 646.93 403.329 647.031 403.337 647.13 403.346 647.226L403.346 647.23C403.411 647.623 403.484 648.015 403.564 648.406 404.141 647.948 404.792 647.456 405.486 646.94 407.173 645.69 409.082 644.353 410.858 643.199 412.4 642.198 413.927 641.276 415.254 640.577 415.7 640.343 416.123 640.133 416.521 639.953L409.491 628.669 403.38 632.819ZM371.881 626.109 401.619 626.109C401.726 626.109 401.851 626.118 401.997 626.133L403.543 626.133C403.595 626.133 403.644 626.109 403.68 626.072 403.715 626.034 403.739 625.979 403.739 625.924L403.739 604.368C403.739 604.314 403.715 604.26 403.68 604.221 403.644 604.183 403.595 604.158 403.543 604.158L370.365 604.158C370.312 604.158 370.263 604.183 370.227 604.221 370.191 604.26 370.167 604.314 370.167 604.368L370.167 625.924C370.167 625.979 370.191 626.034 370.227 626.072 370.263 626.109 370.312 626.133 370.365 626.133L371.468 626.133C371.605 626.116 371.743 626.109 371.881 626.109ZM404.348 629.193C404.348 629.193 404.348 629.202 404.348 629.207L404.348 629.193ZM418.497 642.059C418.493 642.063 418.49 642.066 418.485 642.069L418.497 642.059Z" fill="#23509E" fill-rule="evenodd"/></g></svg>