<svg width="1299" height="1299" xmlns="http://www.w3.org/2000/svg" xmlns:xlink="http://www.w3.org/1999/xlink" xml:space="preserve" overflow="hidden"><defs><clipPath id="clip0"><rect x="0" y="0" width="1299" height="1299"/></clipPath><clipPath id="clip1"><rect x="0" y="184" width="1300" height="932"/></clipPath><clipPath id="clip2"><rect x="0" y="184" width="1300" height="932"/></clipPath><clipPath id="clip3"><rect x="0" y="184" width="1300" height="932"/></clipPath><clipPath id="clip4"><rect x="0" y="184" width="1300" height="932"/></clipPath></defs><g clip-path="url(#clip0)"><g clip-path="url(#clip1)"><g clip-path="url(#clip2)"><g clip-path="url(#clip3)"><g clip-path="url(#clip4)"><path d="M2485.61 1571.75C2485.61 1579.86 2482.49 1587.68 2476.23 1595.17 2438.08 1644.53 2400.86 1682.96 2364.59 1710.46 2358.95 1714.83 2354.11 1717.48 2350.05 1718.42 2345.98 1719.37 2339.25 1719.83 2329.88 1719.83L2314.86 1719.83C2271.7 1719.83 2232.15 1733.26 2196.19 1760.13 2160.22 1787 2130.67 1825.42 2107.53 1875.41 2133.18 1921.64 2163.04 1954.92 2197.12 1975.22 2231.21 1995.53 2270.46 2005.69 2314.86 2005.69L2329.88 2005.69C2339.88 2005.69 2346.77 2006.15 2350.52 2007.09 2354.27 2008.02 2358.95 2010.68 2364.59 2015.06 2398.99 2040.04 2436.21 2077.54 2476.23 2127.53 2482.49 2135.64 2485.61 2143.15 2485.61 2150.02 2485.61 2158.14 2482.49 2165.64 2476.23 2172.51 2438.08 2221.25 2400.86 2258.74 2364.59 2284.98 2358.95 2289.35 2354.11 2292.01 2350.05 2292.94 2345.98 2293.89 2339.25 2294.36 2329.88 2294.36L2314.86 2294.36C2240.44 2294.36 2174.76 2277.79 2117.85 2244.67 2060.93 2211.55 2013.09 2165.94 1974.31 2107.84 1931.77 2183.44 1875.01 2239.52 1804.02 2276.08 1733.04 2312.63 1650.64 2330.9 1556.82 2330.9 1534.92 2330.9 1520.53 2328.41 1513.66 2323.4 1506.78 2318.41 1503.34 2307.48 1503.34 2290.6L1503.34 2067.54C1503.34 2055.68 1506.62 2047.24 1513.19 2042.23 1519.76 2037.24 1531.48 2034.74 1548.36 2034.74 1592.78 2034.74 1630.3 2030.67 1660.95 2022.56 1691.6 2014.43 1720.68 1998.18 1748.21 1973.82 1775.72 1949.45 1802.62 1913.84 1828.89 1866.97 1791.36 1801.99 1750.23 1756.38 1705.51 1730.14 1660.79 1703.89 1604.98 1690.77 1538.05 1690.77 1524.3 1690.77 1515.06 1688.9 1510.37 1685.15 1505.69 1681.4 1503.34 1673.27 1503.34 1660.78L1503.34 1442.41C1503.34 1427.41 1507.41 1416.79 1515.54 1410.54 1523.67 1404.29 1537.42 1401.17 1556.82 1401.17 1645.63 1401.17 1723.03 1419.29 1789.01 1455.53 1855 1491.76 1913.32 1552.06 1963.99 1636.42 2000.88 1570.18 2050.77 1518.17 2113.62 1480.36 2176.48 1442.56 2243.56 1423.66 2314.86 1423.66L2329.88 1423.66C2339.88 1423.66 2346.77 1424.13 2350.52 1425.07 2354.27 1426.01 2358.95 1428.66 2364.59 1433.04 2398.99 1459.28 2436.21 1497.7 2476.23 1548.32 2482.49 1557.06 2485.61 1564.87 2485.61 1571.75Z" fill="#06B6D4" fill-rule="evenodd" transform="matrix(1 0 0 1.00029 -1186.61 -1216.57)"/><path d="M1383.65 1466.85 1383.65 2265.22 1186.61 2265.22 1186.61 1466.85 1383.65 1466.85Z" fill="#111827" fill-rule="evenodd" transform="matrix(1 0 0 1.00029 -1186.61 -1216.57)"/></g></g></g></g></g></svg>