<svg width="1300" height="1299" xmlns="http://www.w3.org/2000/svg" xmlns:xlink="http://www.w3.org/1999/xlink" xml:space="preserve" overflow="hidden"><g transform="translate(1 0)"><path d="M1298.71 355.28C1298.71 363.398 1295.58 371.223 1289.32 378.713 1251.18 428.089 1213.98 466.53 1177.72 494.035 1172.08 498.401 1167.24 501.058 1163.18 501.992 1159.11 502.941 1152.38 503.409 1143.02 503.409L1128 503.409C1084.86 503.409 1045.31 516.84 1009.36 543.718 973.407 570.596 943.859 609.023 920.732 659.027 946.369 705.278 976.223 738.566 1010.29 758.874 1044.38 779.182 1083.62 789.343 1128 789.343L1143.02 789.343C1153.01 789.343 1159.9 789.811 1163.65 790.745 1167.4 791.679 1172.08 794.336 1177.72 798.716 1212.11 823.711 1249.32 861.218 1289.32 911.222 1295.58 919.339 1298.71 926.843 1298.71 933.72 1298.71 941.837 1295.58 949.341 1289.32 956.218 1251.18 1004.97 1213.98 1042.47 1177.72 1068.72 1172.08 1073.09 1167.24 1075.75 1163.18 1076.68 1159.11 1077.63 1152.38 1078.1 1143.02 1078.1L1128 1078.1C1053.6 1078.1 987.94 1061.53 931.048 1028.4 874.141 995.272 826.311 949.648 787.542 891.527 745.022 967.153 688.276 1023.25 617.304 1059.82 546.346 1096.37 463.963 1114.65 370.169 1114.65 348.283 1114.65 333.896 1112.16 327.023 1107.15 320.15 1102.16 316.707 1091.22 316.707 1074.34L316.707 851.217C316.707 839.347 319.99 830.909 326.556 825.901 333.122 820.908 344.839 818.411 361.721 818.411 406.123 818.411 443.637 814.338 474.279 806.22 504.921 798.089 533.987 781.839 561.506 757.472 589.011 733.091 615.903 697.468 642.168 650.588 604.653 585.59 563.534 539.966 518.827 513.716 474.119 487.466 418.321 474.341 351.405 474.341 337.66 474.341 328.424 472.472 323.74 468.72 319.056 464.967 316.707 456.835 316.707 444.338L316.707 225.903C316.707 210.904 320.778 200.279 328.905 194.029 337.032 187.779 350.777 184.653 370.169 184.653 458.958 184.653 536.336 202.779 602.304 239.029 668.271 275.274 726.579 335.585 777.225 419.971 814.112 353.718 863.986 301.685 926.816 263.871 989.661 226.06 1056.72 207.154 1128 207.154L1143.02 207.154C1153.01 207.154 1159.9 207.622 1163.65 208.56 1167.4 209.498 1172.08 212.153 1177.72 216.529 1212.11 242.778 1249.32 281.216 1289.32 331.847 1295.58 340.593 1298.71 348.404 1298.71 355.28Z" fill="#06B6D4" fill-rule="evenodd"/><path d="M196.707 249.653 196.707 1048.65-0.293263 1048.65-0.293263 249.653 196.707 249.653Z" fill="#FFFFFF" fill-rule="evenodd"/></g></svg>