<svg width="192" height="40" viewBox="0 0 192 40" fill="none" xmlns="http://www.w3.org/2000/svg">
<g clip-path="url(#clip0_178_1584)">
<mask id="mask0_178_1584" style="mask-type:luminance" maskUnits="userSpaceOnUse" x="-11" y="-30" width="213" height="100">
<path d="M-10.4668 -29.5343H201.469V69.3691H-10.4668V-29.5343Z" fill="white"/>
</mask>
<g mask="url(#mask0_178_1584)">
<path d="M38.9639 19.6223C38.9639 30.3438 30.3414 39.0352 19.7046 39.0352C9.06787 39.0352 0.445312 30.3438 0.445312 19.6223C0.445312 8.90083 9.06787 0.209488 19.7046 0.209488C30.3414 0.209488 38.9639 8.90083 38.9639 19.6223Z" fill="#23509E"/>
</g>
<mask id="mask1_178_1584" style="mask-type:luminance" maskUnits="userSpaceOnUse" x="-11" y="-30" width="213" height="100">
<path d="M-10.4668 -29.5343H201.469V69.3691H-10.4668V-29.5343Z" fill="white"/>
</mask>
<g mask="url(#mask1_178_1584)">
<path d="M47.6952 9.05517H42.3105V5.69118H56.7235V9.05517H51.3159V24.9869H47.6952V9.05517ZM62.0683 5.66427V17.2321C62.0683 19.035 62.3504 20.2955 62.9112 21.0083C63.4759 21.7216 64.4469 22.0805 65.8241 22.0805C67.1973 22.0805 68.1643 21.7261 68.725 21.0173C69.2862 20.304 69.5649 19.044 69.5649 17.2321V5.66427H73.0694V17.3348C73.0694 18.703 72.9917 19.7971 72.8372 20.6091C72.6826 21.4255 72.4349 22.0715 72.0945 22.547C71.4291 23.4577 70.5937 24.1256 69.5838 24.5562C68.5745 24.9869 67.3249 25.2022 65.8281 25.2022C64.3312 25.2022 63.0777 24.9869 62.0603 24.5562C61.043 24.1256 60.2036 23.4577 59.5382 22.547C59.2052 22.0805 58.966 21.4524 58.815 20.6629C58.6639 19.8734 58.5867 18.7658 58.5867 17.3348V5.66427H62.0683ZM80.1737 9.13592V13.6035H85.2992C86.0922 13.6035 86.6759 13.4195 87.0438 13.0562C87.4151 12.6928 87.6005 12.1321 87.6005 11.3694C87.6005 10.5984 87.4151 10.0331 87.0438 9.67424C86.6759 9.31536 86.0922 9.13592 85.2992 9.13592H80.1737ZM85.357 21.5691C86.158 21.5691 86.7382 21.3851 87.1016 21.0218C87.4649 20.6584 87.6469 20.0887 87.6469 19.3086C87.6469 18.5191 87.4649 17.9404 87.0976 17.5726C86.7302 17.2047 86.15 17.0208 85.357 17.0208H80.1737V21.5691H85.357ZM85.8445 24.9869H76.6692V5.66427H85.2294C86.3125 5.66427 87.1903 5.73605 87.8637 5.87511C88.5406 6.01418 89.0859 6.23848 89.5036 6.54302C90.1152 6.99212 90.5832 7.57031 90.9042 8.2791C91.2252 8.98788 91.3837 9.79536 91.3837 10.6965C91.3837 11.7777 91.1823 12.6883 90.7841 13.4375C90.3818 14.1861 89.7553 14.8187 88.9039 15.3256C89.7667 15.7473 90.4013 16.3125 90.8115 17.0253C91.2252 17.743 91.43 18.6357 91.43 19.7169C91.43 21.5197 90.9775 22.8521 90.0683 23.7039C89.1631 24.5607 87.755 24.9869 85.8445 24.9869ZM93.3316 15.1282C93.3316 11.8091 94.0165 9.33779 95.3897 7.71835C96.7594 6.09941 98.8439 5.28745 101.649 5.28745C104.472 5.28745 106.561 6.10838 107.915 7.74527C109.273 9.38265 109.95 11.9078 109.95 15.3256C109.95 18.7434 109.273 21.273 107.915 22.9188C106.561 24.5652 104.472 25.3906 101.649 25.3906C98.7935 25.3906 96.6936 24.5607 95.3473 22.9054C94.005 21.2506 93.3316 18.6582 93.3316 15.1282ZM101.649 8.5976C100.144 8.5976 99.0218 9.14041 98.2752 10.226C97.5325 11.3116 97.1616 12.9575 97.1616 15.1551C97.1616 17.5372 97.521 19.2817 98.2443 20.3893C98.964 21.4973 100.097 22.0536 101.649 22.0536C103.173 22.0536 104.302 21.5018 105.041 20.4032C105.776 19.3041 106.144 17.6129 106.144 15.3256C106.144 13.0293 105.776 11.3336 105.041 10.2395C104.302 9.14489 103.173 8.5976 101.649 8.5976ZM112.552 5.66427H120.16C121.445 5.66427 122.47 5.74053 123.232 5.89306C123.998 6.04558 124.605 6.29231 125.057 6.62427C125.812 7.18502 126.384 7.92022 126.775 8.82639C127.165 9.73256 127.359 10.7778 127.359 11.9616C127.359 13.119 127.2 14.1104 126.883 14.9398C126.566 15.7652 126.083 16.4516 125.433 16.9939C124.887 17.4425 124.26 17.761 123.557 17.9494C122.849 18.1378 121.766 18.232 120.307 18.232H116.056V24.9869H112.552V5.66427ZM120.114 9.10901H116.056V14.8142H120.331C121.39 14.8142 122.176 14.5809 122.69 14.1104C123.205 13.6438 123.46 12.9261 123.46 11.9616C123.46 10.9253 123.209 10.1946 122.706 9.75947C122.203 9.32433 121.34 9.10901 120.114 9.10901ZM136.603 24.9869C135.044 24.9869 133.887 24.8344 133.133 24.5338C132.375 24.2332 131.698 23.7084 131.102 22.9637C130.549 22.2958 130.162 21.5422 129.934 20.7033C129.705 19.8644 129.593 18.6806 129.593 17.1559V5.66427H133.098V17.0253C133.098 18.1557 133.14 18.9498 133.229 19.4118C133.315 19.8734 133.466 20.2412 133.678 20.5238C134.007 20.9769 134.417 21.2999 134.901 21.4928C135.384 21.6857 136.053 21.7844 136.908 21.7844H141.036V24.9869H136.603ZM150.035 9.50377L147.599 16.9405H152.562L150.035 9.50377ZM148.314 5.66427H152.028L159.133 24.9869H155.234L153.706 20.3848H146.465L144.98 24.9869H141.262L148.314 5.66427ZM174.597 9.10901H165.944C165.016 9.10901 164.335 9.31087 163.898 9.71461C163.464 10.1184 163.248 10.7549 163.248 11.6341C163.248 12.3339 163.434 12.8633 163.801 13.2132C164.172 13.5631 164.725 13.7375 165.456 13.7375H170.091C172.009 13.7375 173.378 14.1592 174.191 14.9981C175.003 15.8415 175.409 17.2406 175.409 19.2055C175.409 21.1922 174.942 22.6547 174.001 23.5873C173.065 24.5203 171.592 24.9869 169.58 24.9869H160.253V21.5422H169.023C170.021 21.5422 170.721 21.3717 171.131 21.0352C171.537 20.6988 171.743 20.1425 171.743 19.362C171.743 18.555 171.557 17.9808 171.181 17.6398C170.806 17.2989 170.168 17.1284 169.263 17.1284H165.128C163.205 17.1284 161.801 16.6848 160.915 15.7921C160.026 14.9039 159.581 13.5003 159.581 11.5803C159.581 9.53069 160.049 8.03237 160.981 7.08583C161.917 6.13978 163.399 5.66427 165.433 5.66427H174.597V9.10901ZM181.883 9.05517H176.499V5.69118H190.912V9.05517H185.504V24.9869H181.883V9.05517Z" fill="#23509E"/>
</g>
<mask id="mask2_178_1584" style="mask-type:luminance" maskUnits="userSpaceOnUse" x="-11" y="-30" width="213" height="100">
<path d="M-10.4668 -29.5343H201.469V69.3691H-10.4668V-29.5343Z" fill="white"/>
</mask>
<g mask="url(#mask2_178_1584)">
<path d="M19.7602 0.377014C9.10096 0.377014 0.42906 9.04892 0.42906 19.7081C0.42906 30.3678 9.10096 39.0397 19.7602 39.0397C30.4193 39.0397 39.0912 30.3678 39.0912 19.7081C39.0912 9.04892 30.4193 0.377014 19.7602 0.377014ZM19.7602 39.3203C8.94595 39.3203 0.148438 30.5223 0.148438 19.7081C0.148438 8.8944 8.94595 0.0963898 19.7602 0.0963898C30.5739 0.0963898 39.3719 8.8944 39.3719 19.7081C39.3719 30.5223 30.5739 39.3203 19.7602 39.3203Z" fill="white"/>
</g>
<mask id="mask3_178_1584" style="mask-type:luminance" maskUnits="userSpaceOnUse" x="-11" y="-30" width="213" height="100">
<path d="M-10.4668 -29.5343H201.469V69.3691H-10.4668V-29.5343Z" fill="white"/>
</mask>
<g mask="url(#mask3_178_1584)">
<path fill-rule="evenodd" clip-rule="evenodd" d="M19.76 37.6348C9.85941 37.6348 1.83398 29.6088 1.83398 19.7083C1.83398 9.80822 9.85941 1.7823 19.76 1.7823C29.6605 1.7823 37.6864 9.80822 37.6864 19.7083C37.6864 29.6088 29.6605 37.6348 19.76 37.6348Z" fill="#F3F020"/>
</g>
<mask id="mask4_178_1584" style="mask-type:luminance" maskUnits="userSpaceOnUse" x="-11" y="-30" width="213" height="100">
<path d="M-10.4668 -29.5343H201.469V69.3691H-10.4668V-29.5343Z" fill="white"/>
</mask>
<g mask="url(#mask4_178_1584)">
<path d="M28.3466 17.9281C28.3456 17.9291 28.3441 17.9301 28.3431 17.9311L28.3466 17.9281L28.4059 17.8773L28.3381 17.9346C28.3067 17.956 28.2729 17.9755 28.238 17.9899L28.2345 17.9919C28.2016 18.0059 28.1657 18.0163 28.1283 18.0243L28.1233 18.0263C28.0127 18.0467 27.8223 18.1305 27.585 18.2551C27.4519 18.3249 27.3029 18.4086 27.1449 18.5028L28.5844 18.4968H28.864L28.9896 18.7326L29.0026 18.7565L29.0041 18.7585L30.944 22.4156L30.9455 22.4211L30.957 22.443L31.0661 22.6558L30.9634 22.8726L30.953 22.8941L30.957 22.8891L28.7404 27.7255L28.7369 27.731L28.7244 27.7579L28.6028 28.0136H27.0093L27.0123 32.3904V32.4014L27.0108 32.4477L26.9998 32.9043L26.5732 32.9013L26.5293 32.9008L15.1962 32.8535L15.1683 32.853L14.8947 32.8515L14.7765 32.5868L14.7646 32.5599V32.5619C14.6679 32.3475 14.5951 32.1242 14.5458 31.8989V31.8969C14.4949 31.6642 14.4695 31.4314 14.4695 31.2066C14.4695 31.0072 14.4904 30.8019 14.5318 30.595L13.4028 30.5855H13.1322L13.0051 30.3622L12.9921 30.3398H12.9941C12.8515 30.0931 12.7324 29.8503 12.6452 29.6081C12.5515 29.3479 12.4932 29.0882 12.4797 28.8255C12.4662 28.5594 12.4991 28.2917 12.5879 28.0201L12.5894 28.0186C12.6003 27.9852 12.6128 27.9523 12.6253 27.9189H10.4994L10.3798 27.6577L8.18612 22.8697L8.08594 22.6513L8.19809 22.4405L10.1131 18.8293L10.2387 18.5915H14.5627V14.3383C14.5627 14.2955 14.5662 14.2531 14.5712 14.2117C14.5104 14.1698 14.453 14.121 14.4017 14.0667C14.2183 13.8713 14.1041 13.6016 14.1041 13.305V7.60735C14.1041 7.31028 14.2183 7.04012 14.4017 6.84523C14.5851 6.65034 14.8383 6.52872 15.1175 6.52872H23.9449C24.224 6.52872 24.4777 6.65034 24.6606 6.84523C24.8441 7.04012 24.9582 7.31028 24.9582 7.60735V13.305C24.9582 13.6016 24.8441 13.8713 24.6606 14.0667C24.5844 14.1479 24.4947 14.2162 24.397 14.2685C24.397 14.2705 24.3975 14.2725 24.3975 14.2745C24.3975 14.2955 24.3955 14.3234 24.392 14.3558C24.392 14.3568 24.392 14.3588 24.392 14.3588V14.3558V14.3523C24.3885 14.3936 24.385 14.4201 24.382 14.437L25.6032 13.5986L25.6017 13.6006C25.6456 13.5707 25.6924 13.5458 25.7398 13.5283C25.7891 13.4506 25.8534 13.3823 25.9317 13.3285L28.2006 11.7674L28.1991 11.7698C28.3546 11.6627 28.5355 11.6308 28.7015 11.6657C28.8705 11.7016 29.0285 11.8067 29.1327 11.9712V11.9692L31.1678 15.1757C31.273 15.3412 31.3029 15.5366 31.2675 15.7185C31.2321 15.8989 31.1309 16.0659 30.9734 16.1741L28.7045 17.7352L28.706 17.7332C28.6238 17.79 28.5335 17.8254 28.4423 17.8414C28.4139 17.8733 28.382 17.9027 28.3466 17.9281Z" fill="white"/>
</g>
<mask id="mask5_178_1584" style="mask-type:luminance" maskUnits="userSpaceOnUse" x="-11" y="-30" width="213" height="100">
<path d="M-10.4668 -29.5343H201.469V69.3691H-10.4668V-29.5343Z" fill="white"/>
</mask>
<g mask="url(#mask5_178_1584)">
<path d="M15.0485 32.6747L23.058 32.7086V26.5329L22.9423 26.4122C22.9568 26.5229 22.9618 26.6336 22.9573 26.7417C22.9513 26.8843 22.9264 27.0308 22.885 27.1764L22.887 27.1739C22.8058 27.4575 22.6567 27.7037 22.4394 27.9041C22.3891 27.9499 22.3352 27.9933 22.2784 28.0337C22.3387 28.1598 22.3926 28.2869 22.4379 28.4135C22.5471 28.721 22.6079 29.0291 22.6084 29.3301C22.6089 29.6471 22.5486 29.9602 22.422 30.2667C22.3003 30.5613 22.1194 30.8444 21.8747 31.1145L21.8687 31.123L21.7062 31.296H21.4754L15.05 31.2586C15.0311 31.3209 15.0146 31.3827 15.0007 31.4445C14.9628 31.6145 14.9433 31.7855 14.9433 31.9554C14.9433 32.1289 14.9618 32.3038 14.9977 32.4738C15.0121 32.5411 15.0286 32.6079 15.0485 32.6747ZM29.6559 11.598V11.596L31.7872 14.954C31.8974 15.127 31.9288 15.3319 31.8914 15.5223C31.8545 15.7112 31.7488 15.8861 31.5833 15.9993L29.2073 17.6337L29.2093 17.6322C29.1225 17.6915 29.0283 17.7289 28.9331 17.7453C28.9032 17.7787 28.8693 17.8096 28.8324 17.836L28.8947 17.7832L28.8235 17.843C28.7911 17.8654 28.7552 17.8854 28.7188 17.9008L28.7153 17.9028C28.6809 17.9173 28.643 17.9288 28.6036 17.9367L28.5987 17.9387C28.4825 17.9602 28.2836 18.0479 28.0354 18.1785C27.8959 18.2517 27.7398 18.3395 27.5739 18.4382L29.0817 18.4317H29.3742L29.5058 18.6784L29.5198 18.7038L29.5213 18.7058L31.5524 22.5354L31.5544 22.5408L31.5664 22.5638L31.6805 22.7871L31.5734 23.0139L31.5624 23.0368L31.5659 23.0313L29.2451 28.096L29.2417 28.102L29.2282 28.1299L29.1011 28.3975H27.4323L27.4348 32.9812V32.9927L27.4338 33.0415L27.4228 33.5195L26.9752 33.516L26.9299 33.5155L15.0615 33.4662L15.0321 33.4657L14.7455 33.4642L14.6218 33.1871L14.6094 33.1587V33.1607C14.5082 32.9364 14.4314 32.7026 14.3796 32.4663V32.4643C14.3268 32.2206 14.2998 31.9769 14.3003 31.7416C14.3003 31.5327 14.3218 31.3179 14.3656 31.1011L13.1828 31.0911H12.8997L12.7666 30.8574L12.7532 30.8334H12.7547C12.6061 30.5752 12.481 30.321 12.3898 30.0678C12.2916 29.7947 12.2308 29.5235 12.2169 29.2484C12.2024 28.9693 12.2368 28.6891 12.33 28.4045L12.3315 28.4025C12.343 28.3681 12.3554 28.3332 12.3689 28.2983H10.1428L10.0177 28.0252L7.71991 23.0109L7.61523 22.7821L7.73237 22.5613L9.7381 18.7796L9.87019 18.5309H14.398V14.0768C14.398 14.0319 14.4015 13.9876 14.407 13.9442C14.3427 13.8998 14.2829 13.849 14.2291 13.7922C14.0372 13.5878 13.9175 13.3052 13.9175 12.9942V7.02782C13.9175 6.71679 14.0372 6.43417 14.2291 6.22981C14.421 6.02545 14.6866 5.89785 14.9787 5.89785H24.2228C24.5154 5.89785 24.7811 6.02545 24.9725 6.22981C25.1644 6.43417 25.284 6.71679 25.284 7.02782V12.9942C25.284 13.3052 25.1644 13.5878 24.9725 13.7922C24.8927 13.8774 24.7985 13.9492 24.6964 14.0035C24.6964 14.0055 24.6969 14.0075 24.6969 14.01C24.6969 14.0319 24.6949 14.0608 24.6914 14.0952V14.0912C24.6879 14.1346 24.6839 14.1625 24.6809 14.18L25.9599 13.3022L25.9579 13.3042C26.0038 13.2723 26.0531 13.2474 26.103 13.2284C26.1543 13.1472 26.2216 13.0759 26.3038 13.0191L28.6799 11.3847L28.6784 11.3867C28.8409 11.2745 29.0303 11.2416 29.2043 11.278C29.3812 11.3154 29.5467 11.4256 29.6559 11.598ZM26.7803 13.5938L28.8264 16.8736L28.8793 16.9568L31.1293 15.4086L29.0054 12.0626L26.7803 13.5938ZM23.8375 20.4025C23.8311 20.3761 23.8246 20.3502 23.8186 20.3223V20.3203C23.7917 20.1922 23.7668 20.0461 23.7458 19.8881C23.7234 19.7192 23.7064 19.5661 23.694 19.4335C23.694 19.4311 23.6935 19.4286 23.6935 19.4266C23.6676 19.2611 23.6451 19.0961 23.6277 18.9306C23.5644 18.3529 23.5469 17.5001 23.5624 16.9413C23.5779 16.3911 23.6267 15.8388 23.697 15.2985C23.7583 14.8274 23.8345 14.3744 23.9188 13.9427H15.1497V20.4304L23.8375 20.4025ZM23.7608 32.7215L26.6273 32.7335L26.6218 24.9867L25.123 21.5604L24.8912 21.059L24.2333 21.061C24.183 21.0769 24.1296 21.0899 24.0718 21.0993C24.0065 21.1108 23.9462 21.1168 23.8914 21.1168H18.4593V25.2504H20.18L20.9496 24.4339L20.9835 24.3975L21.3174 24.0436L21.6544 24.3935L21.6888 24.4294L23.5993 26.1705L23.6147 26.1859L23.7608 26.338V32.7215ZM24.2169 21.061H24.2154L24.1192 21.0774L24.2169 21.061ZM15.1397 21.0545L13.0572 21.0615C12.9919 21.1532 12.9381 21.2444 12.8962 21.3351C12.8374 21.4627 12.803 21.5928 12.7975 21.7249C12.7921 21.8615 12.817 22.0045 12.8763 22.1555C12.9217 22.2707 12.9869 22.3913 13.0722 22.5174L17.9021 22.5249V21.0819H15.4069C15.3167 21.0819 15.2274 21.0734 15.1397 21.0545ZM13.0777 23.1823C12.9994 23.3219 12.9341 23.4605 12.8843 23.5985C12.813 23.7979 12.7726 23.9978 12.7686 24.1977C12.7641 24.396 12.795 24.5979 12.8628 24.8023C12.9102 24.9443 12.9765 25.0909 13.0622 25.2414L17.9021 25.2504V23.1908L13.0777 23.1823ZM13.0094 25.9866C12.9531 26.0733 12.9127 26.159 12.8868 26.2448V26.2473C12.8499 26.3689 12.8399 26.5025 12.8519 26.6445V26.6415C12.8673 26.8185 12.9157 27.0114 12.9904 27.2147C13.0458 27.3653 13.1145 27.5203 13.1938 27.6758H21.5043C21.6045 27.6314 21.6828 27.5751 21.7396 27.5093C21.7929 27.4455 21.8303 27.3673 21.8502 27.278L21.8488 27.28C21.8612 27.2242 21.8687 27.1639 21.8707 27.1011C21.8727 27.0328 21.8692 26.966 21.8597 26.9032C21.8502 26.8354 21.8343 26.7676 21.8124 26.7038C21.7909 26.64 21.7625 26.5777 21.7286 26.5174C21.6404 26.3649 21.5078 26.2273 21.3369 26.1371C21.1759 26.0524 20.9765 26.0095 20.7412 26.0314L20.7362 26.0135L20.7023 26.023H17.6698V25.9965L13.0094 25.9866ZM13.1978 28.4479C13.133 28.5825 13.0831 28.7131 13.0478 28.8426C12.9939 29.039 12.974 29.2359 12.982 29.4318C12.982 29.4328 12.9815 29.4333 12.982 29.4343V29.4318C12.982 29.4328 12.982 29.4333 12.982 29.4343C12.9904 29.6421 13.0293 29.8535 13.0921 30.0688C13.134 30.2124 13.1868 30.3609 13.2496 30.5149L14.4977 30.5279V30.5269L14.9827 30.5304L21.606 30.5752C21.6813 30.4471 21.7401 30.3195 21.7825 30.1909L21.7845 30.1884C21.8433 30.0115 21.8717 29.8276 21.8712 29.6387C21.8712 29.4517 21.8318 29.2334 21.765 29.0031C21.7112 28.8202 21.6404 28.6323 21.5577 28.4479H13.1978ZM24.4083 15.1494C24.3938 15.2616 24.3808 15.3752 24.3689 15.4899C24.3769 15.6539 24.3843 15.8767 24.3724 16.1463C24.3375 16.9483 24.3235 18.4481 24.3908 19.2521C24.3933 19.2815 24.3958 19.3104 24.3983 19.3383V19.3393C24.4172 19.4535 24.4387 19.5676 24.4621 19.6813C24.6311 19.5482 24.8215 19.4051 25.0248 19.2551C25.5183 18.8917 26.077 18.503 26.5969 18.1675C27.048 17.8764 27.4951 17.6083 27.8834 17.4049C28.014 17.3371 28.1376 17.2758 28.2542 17.2235L26.1967 13.9427L24.4083 15.1494ZM15.1896 13.1985H23.8929C23.9243 13.1985 23.9607 13.201 24.0035 13.2055H24.4561C24.4711 13.2055 24.4855 13.1985 24.496 13.1876C24.5064 13.1766 24.5134 13.1607 24.5134 13.1447V6.87729C24.5134 6.86134 24.5064 6.84589 24.496 6.83442C24.4855 6.82346 24.4711 6.81598 24.4561 6.81598H14.746C14.7305 6.81598 14.716 6.82346 14.7056 6.83442C14.6951 6.84589 14.6881 6.86134 14.6881 6.87729V13.1447C14.6881 13.1607 14.6951 13.1766 14.7056 13.1876C14.716 13.1985 14.7305 13.2055 14.746 13.2055H15.0689C15.1088 13.2005 15.1492 13.1985 15.1896 13.1985ZM24.6914 14.0952C24.6914 14.0952 24.6914 14.0977 24.6914 14.0992V14.0952ZM28.8324 17.836C28.8314 17.837 28.8304 17.838 28.8289 17.839L28.8324 17.836Z" fill="#23509E"/>
</g>
<mask id="mask6_178_1584" style="mask-type:luminance" maskUnits="userSpaceOnUse" x="-11" y="-30" width="213" height="100">
<path d="M-10.4668 -29.5343H201.469V69.3691H-10.4668V-29.5343Z" fill="white"/>
</mask>
<g mask="url(#mask6_178_1584)">
<path d="M62.5919 29.657H61.3991V33.5777C61.3991 33.8035 61.3488 33.971 61.2481 34.0802C61.1474 34.1898 61.0173 34.2441 60.8578 34.2441C60.6958 34.2441 60.5637 34.1888 60.462 34.0787C60.3603 33.968 60.3095 33.8015 60.3095 33.5777V29.657H59.1162C58.9298 29.657 58.7912 29.6161 58.7005 29.5339C58.6093 29.4516 58.5645 29.343 58.5645 29.2079C58.5645 29.0678 58.6113 28.9577 58.706 28.8764C58.8002 28.7957 58.9373 28.7548 59.1162 28.7548H62.5919C62.7808 28.7548 62.9213 28.7967 63.0131 28.8804C63.1053 28.9636 63.1516 29.0728 63.1516 29.2079C63.1516 29.343 63.1048 29.4516 63.0116 29.5339C62.9183 29.6161 62.7783 29.657 62.5919 29.657Z" fill="#23509E"/>
</g>
<mask id="mask7_178_1584" style="mask-type:luminance" maskUnits="userSpaceOnUse" x="-11" y="-30" width="213" height="100">
<path d="M-10.4668 -29.5343H201.469V69.3691H-10.4668V-29.5343Z" fill="white"/>
</mask>
<g mask="url(#mask7_178_1584)">
<path d="M63.8066 31.9209V29.3255C63.8066 29.1047 63.8565 28.9387 63.9557 28.8286C64.0554 28.7179 64.186 28.6631 64.3479 28.6631C64.5169 28.6631 64.6515 28.7179 64.7512 28.8286C64.8504 28.9387 64.9002 29.1047 64.9002 29.3255V31.9797C64.9002 32.2818 64.9336 32.534 65.0014 32.7364C65.0687 32.9387 65.1883 33.0962 65.3603 33.2079C65.5322 33.3195 65.7725 33.3749 66.082 33.3749C66.5092 33.3749 66.8108 33.2617 66.9877 33.0344C67.1641 32.8076 67.2524 32.4637 67.2524 32.0021V29.3255C67.2524 29.1022 67.3017 28.9357 67.3999 28.8266C67.4981 28.7174 67.6292 28.6631 67.7937 28.6631C67.9582 28.6631 68.0913 28.7174 68.1934 28.8266C68.2951 28.9357 68.346 29.1022 68.346 29.3255V31.9209C68.346 32.3431 68.3051 32.6955 68.2228 32.9776C68.1406 33.2597 67.9851 33.5074 67.7568 33.7213C67.5604 33.9027 67.3321 34.0353 67.0719 34.119C66.8122 34.2023 66.5077 34.2441 66.1593 34.2441C65.7446 34.2441 65.3872 34.1993 65.0881 34.1096C64.7886 34.0203 64.5443 33.8813 64.3554 33.6939C64.166 33.5059 64.0275 33.2652 63.9392 32.9721C63.851 32.679 63.8066 32.3286 63.8066 31.9209Z" fill="#23509E"/>
</g>
<mask id="mask8_178_1584" style="mask-type:luminance" maskUnits="userSpaceOnUse" x="-11" y="-30" width="213" height="100">
<path d="M-10.4668 -29.5343H201.469V69.3691H-10.4668V-29.5343Z" fill="white"/>
</mask>
<g mask="url(#mask8_178_1584)">
<path d="M71.7525 31.7558H70.6146V33.3314H71.7894C72.5281 33.3314 72.8974 33.0652 72.8974 32.5324C72.8974 32.2603 72.8017 32.0624 72.6103 31.9398C72.4189 31.8171 72.1328 31.7558 71.7525 31.7558ZM70.6146 29.5766V30.9718H71.6164C71.8886 30.9718 72.0989 30.9459 72.2475 30.894C72.396 30.8427 72.5096 30.745 72.5879 30.5999C72.6492 30.4968 72.6801 30.3811 72.6801 30.2535C72.6801 29.9814 72.5834 29.8004 72.3895 29.7107C72.1956 29.621 71.8996 29.5766 71.5023 29.5766H70.6146ZM71.8333 34.1523H70.1839C69.9462 34.1523 69.7762 34.099 69.674 33.9923C69.5723 33.8857 69.5215 33.7157 69.5215 33.4824V29.4256C69.5215 29.1874 69.5733 29.0164 69.678 28.9117C69.7822 28.8075 69.9506 28.7552 70.1839 28.7552H71.9329C72.1906 28.7552 72.4139 28.7712 72.6029 28.8031C72.7918 28.835 72.9612 28.8968 73.1108 28.9875C73.2384 29.0632 73.3515 29.1599 73.4497 29.2766C73.5479 29.3932 73.6227 29.5218 73.674 29.6629C73.7258 29.8039 73.7513 29.953 73.7513 30.11C73.7513 30.6503 73.4816 31.0456 72.9413 31.2958C73.6511 31.5216 74.0055 31.9607 74.0055 32.6137C74.0055 32.9157 73.9282 33.1874 73.7737 33.4291C73.6192 33.6708 73.4103 33.8493 73.1477 33.9649C72.9832 34.0337 72.7943 34.0821 72.5809 34.11C72.3671 34.1384 72.1179 34.1523 71.8333 34.1523Z" fill="#23509E"/>
</g>
<mask id="mask9_178_1584" style="mask-type:luminance" maskUnits="userSpaceOnUse" x="-11" y="-30" width="213" height="100">
<path d="M-10.4668 -29.5343H201.469V69.3691H-10.4668V-29.5343Z" fill="white"/>
</mask>
<g mask="url(#mask9_178_1584)">
<path d="M78.5076 29.5981H76.0448V30.9234H78.3127C78.4796 30.9234 78.6038 30.9608 78.686 31.0361C78.7682 31.1108 78.8096 31.2095 78.8096 31.3322C78.8096 31.4548 78.7692 31.555 78.688 31.6322C78.6067 31.7095 78.4816 31.7479 78.3127 31.7479H76.0448V33.2831H78.5923C78.7638 33.2831 78.8934 33.3234 78.9806 33.4027C79.0678 33.4829 79.1112 33.5891 79.1112 33.7217C79.1112 33.8493 79.0678 33.953 78.9806 34.0327C78.8934 34.1125 78.7638 34.1523 78.5923 34.1523H75.6211C75.3833 34.1523 75.2119 34.0995 75.1077 33.9938C75.003 33.8887 74.9512 33.7177 74.9512 33.4824V29.4251C74.9512 29.2681 74.9746 29.1395 75.021 29.0403C75.0678 28.9411 75.1406 28.8689 75.2403 28.823C75.3395 28.7776 75.4666 28.7552 75.6211 28.7552H78.5076C78.682 28.7552 78.8111 28.7936 78.8958 28.8708C78.9806 28.9481 79.0229 29.0493 79.0229 29.1749C79.0229 29.3025 78.9806 29.4047 78.8958 29.4824C78.8111 29.5597 78.682 29.5981 78.5076 29.5981Z" fill="#23509E"/>
</g>
<mask id="mask10_178_1584" style="mask-type:luminance" maskUnits="userSpaceOnUse" x="-11" y="-30" width="213" height="100">
<path d="M-10.4668 -29.5343H201.469V69.3691H-10.4668V-29.5343Z" fill="white"/>
</mask>
<g mask="url(#mask10_178_1584)">
<path d="M82.0746 29.5762H81.0657V31.0601H82.0452C82.3079 31.0601 82.5287 31.0372 82.7081 30.9918C82.887 30.9464 83.0236 30.8692 83.1183 30.7595C83.2125 30.6504 83.2599 30.5003 83.2599 30.3089C83.2599 30.1589 83.222 30.0273 83.1457 29.9132C83.07 29.799 82.9643 29.7138 82.8292 29.6575C82.7016 29.6031 82.4504 29.5762 82.0746 29.5762ZM81.4485 31.8441H81.0657V33.5782C81.0657 33.8065 81.0154 33.9745 80.9147 34.0826C80.814 34.1903 80.6829 34.2441 80.5209 34.2441C80.3465 34.2441 80.2119 34.1878 80.1162 34.0752C80.02 33.962 79.9727 33.7965 79.9727 33.5782V29.4252C79.9727 29.1894 80.025 29.019 80.1307 28.9138C80.2363 28.8076 80.4068 28.7553 80.6426 28.7553H82.4205C82.6662 28.7553 82.8756 28.7658 83.05 28.7867C83.2245 28.8076 83.3815 28.8495 83.5211 28.9138C83.6905 28.9846 83.8406 29.0868 83.9707 29.2188C84.1008 29.3514 84.1994 29.5054 84.2667 29.6809C84.3345 29.8564 84.3684 30.0428 84.3684 30.2387C84.3684 30.6414 84.2548 30.9629 84.028 31.2036C83.8007 31.4439 83.4563 31.6144 82.9947 31.715C83.1886 31.8182 83.374 31.9702 83.551 32.1716C83.7274 32.373 83.8854 32.5873 84.024 32.8141C84.1626 33.0414 84.2707 33.2463 84.348 33.4292C84.4252 33.6116 84.4641 33.7377 84.4641 33.8065C84.4641 33.8773 84.4412 33.9481 84.3958 34.0178C84.3505 34.0881 84.2887 34.143 84.2099 34.1838C84.1312 34.2242 84.0404 34.2441 83.9373 34.2441C83.8146 34.2441 83.7115 34.2157 83.6282 34.1579C83.5445 34.1001 83.4732 34.0273 83.4129 33.9391C83.3526 33.8504 83.2713 33.7208 83.1682 33.5488L82.73 32.8196C82.573 32.5519 82.4325 32.3486 82.3084 32.2085C82.1842 32.0684 82.0586 31.9727 81.931 31.9214C81.8034 31.8701 81.6424 31.8441 81.4485 31.8441Z" fill="#23509E"/>
</g>
<mask id="mask11_178_1584" style="mask-type:luminance" maskUnits="userSpaceOnUse" x="-11" y="-30" width="213" height="100">
<path d="M-10.4668 -29.5343H201.469V69.3691H-10.4668V-29.5343Z" fill="white"/>
</mask>
<g mask="url(#mask11_178_1584)">
<path d="M85.4482 33.5777V29.3255C85.4482 29.1047 85.4986 28.9387 85.5992 28.8286C85.6999 28.7179 85.8295 28.6631 85.9895 28.6631C86.154 28.6631 86.2871 28.7174 86.3888 28.8266C86.4905 28.9357 86.5418 29.1022 86.5418 29.3255V33.5777C86.5418 33.801 86.4905 33.968 86.3888 34.0787C86.2871 34.1888 86.154 34.2441 85.9895 34.2441C85.8325 34.2441 85.7029 34.1883 85.6007 34.0767C85.4991 33.965 85.4482 33.7985 85.4482 33.5777ZM86.166 27.3487H86.6629C86.7885 27.3487 86.8508 27.3671 86.8508 27.4035C86.8508 27.4235 86.782 27.5032 86.6445 27.6428C86.5069 27.7828 86.3683 27.9169 86.2288 28.044C86.0887 28.1721 85.9915 28.2494 85.9377 28.2763C85.7981 28.3476 85.6481 28.383 85.4886 28.383C85.3834 28.383 85.3301 28.3526 85.3301 28.2912C85.3301 28.2494 85.362 28.1771 85.4263 28.0739L85.5918 27.7644C85.6875 27.5854 85.7712 27.4713 85.842 27.422C85.9133 27.3731 86.0214 27.3487 86.166 27.3487Z" fill="#23509E"/>
</g>
<mask id="mask12_178_1584" style="mask-type:luminance" maskUnits="userSpaceOnUse" x="-11" y="-30" width="213" height="100">
<path d="M-10.4668 -29.5343H201.469V69.3691H-10.4668V-29.5343Z" fill="white"/>
</mask>
<g mask="url(#mask12_178_1584)">
<path d="M89.0522 32.0425H90.6647L89.8512 29.815L89.0522 32.0425ZM91.217 33.5408L90.9593 32.8635H88.7651L88.5074 33.5558C88.4067 33.8254 88.321 34.0079 88.2497 34.1026C88.1784 34.1968 88.0618 34.2441 87.8998 34.2441C87.7622 34.2441 87.6406 34.1938 87.5355 34.0931C87.4298 33.9924 87.377 33.8783 87.377 33.7507C87.377 33.6774 87.3894 33.6012 87.4138 33.5224C87.4383 33.4441 87.4791 33.3345 87.5355 33.1949L88.9161 29.6899C88.955 29.5892 89.0024 29.4686 89.0577 29.3275C89.113 29.1859 89.1718 29.0688 89.2341 28.9756C89.297 28.8824 89.3792 28.8071 89.4809 28.7493C89.5831 28.6915 89.7087 28.6626 89.8582 28.6626C90.0107 28.6626 90.1378 28.6915 90.2395 28.7493C90.3412 28.8071 90.4234 28.8814 90.4862 28.9721C90.549 29.0628 90.6014 29.1605 90.6442 29.2647C90.6876 29.3689 90.7419 29.5084 90.8082 29.6824L92.2183 33.1655C92.329 33.4307 92.3843 33.6231 92.3843 33.7432C92.3843 33.8683 92.332 33.9835 92.2273 34.0876C92.1231 34.1918 91.9975 34.2441 91.85 34.2441C91.7642 34.2441 91.6905 34.2287 91.6292 34.1983C91.5679 34.1674 91.5165 34.1255 91.4746 34.0732C91.4328 34.0198 91.3879 33.9391 91.3401 33.8299C91.2922 33.7208 91.2513 33.6241 91.217 33.5408Z" fill="#23509E"/>
</g>
<mask id="mask13_178_1584" style="mask-type:luminance" maskUnits="userSpaceOnUse" x="-11" y="-30" width="213" height="100">
<path d="M-10.4668 -29.5343H201.469V69.3691H-10.4668V-29.5343Z" fill="white"/>
</mask>
<g mask="url(#mask13_178_1584)">
<path d="M97.2871 32.5325C97.2871 32.859 97.2034 33.1521 97.0349 33.4122C96.867 33.6724 96.6207 33.8763 96.2967 34.0233C95.9728 34.1709 95.589 34.2441 95.1443 34.2441C94.612 34.2441 94.1724 34.144 93.8265 33.9426C93.5812 33.7975 93.3818 33.6046 93.2283 33.3624C93.0748 33.1207 92.998 32.8859 92.998 32.6576C92.998 32.525 93.0439 32.4119 93.1361 32.3172C93.2283 32.2225 93.3455 32.1756 93.488 32.1756C93.6032 32.1756 93.7009 32.212 93.7806 32.2858C93.8604 32.3595 93.9286 32.4687 93.985 32.6137C94.0537 32.7852 94.1275 32.9288 94.2078 33.0444C94.2875 33.1595 94.3997 33.2547 94.5442 33.3295C94.6893 33.4043 94.8797 33.4421 95.1149 33.4421C95.4389 33.4421 95.7021 33.3664 95.9045 33.2154C96.1073 33.0643 96.2085 32.8759 96.2085 32.6501C96.2085 32.4712 96.1537 32.3256 96.0445 32.214C95.9354 32.1023 95.7943 32.0171 95.6213 31.9583C95.4484 31.899 95.2166 31.8367 94.9275 31.7704C94.5397 31.6797 94.2152 31.5735 93.9536 31.4519C93.6924 31.3307 93.4845 31.1648 93.331 30.9549C93.178 30.7451 93.1012 30.4844 93.1012 30.1729C93.1012 29.8758 93.1825 29.6116 93.3445 29.3813C93.506 29.1506 93.7407 28.9731 94.0473 28.849C94.3543 28.7249 94.7152 28.6631 95.1299 28.6631C95.4613 28.6631 95.7475 28.7045 95.9892 28.7867C96.2314 28.8689 96.4318 28.9781 96.5913 29.1142C96.7508 29.2502 96.8675 29.3933 96.9412 29.5433C97.015 29.6929 97.0519 29.8389 97.0519 29.981C97.0519 30.1116 97.0055 30.2287 96.9133 30.3329C96.8216 30.437 96.7065 30.4889 96.5694 30.4889C96.4443 30.4889 96.3491 30.458 96.2843 30.3952C96.219 30.3329 96.1482 30.2302 96.0719 30.0876C95.9742 29.8843 95.8566 29.7253 95.719 29.6111C95.5815 29.497 95.3607 29.4402 95.0561 29.4402C94.774 29.4402 94.5462 29.502 94.3732 29.6261C94.2003 29.7497 94.1136 29.8992 94.1136 30.0732C94.1136 30.1813 94.143 30.2745 94.2018 30.3533C94.2606 30.4316 94.3418 30.4988 94.445 30.5557C94.5482 30.612 94.6524 30.6564 94.758 30.6883C94.8637 30.7202 95.0377 30.7665 95.2809 30.8278C95.585 30.8991 95.8606 30.9778 96.1073 31.0636C96.3541 31.1498 96.5634 31.254 96.7369 31.3766C96.9098 31.4992 97.0449 31.6542 97.1416 31.8421C97.2388 32.0301 97.2871 32.2603 97.2871 32.5325Z" fill="#23509E"/>
</g>
<mask id="mask14_178_1584" style="mask-type:luminance" maskUnits="userSpaceOnUse" x="-11" y="-30" width="213" height="100">
<path d="M-10.4668 -29.5343H201.469V69.3691H-10.4668V-29.5343Z" fill="white"/>
</mask>
<g mask="url(#mask14_178_1584)">
<path d="M101.305 33.5777V31.8661L99.9869 29.8225C99.8713 29.6385 99.79 29.495 99.7422 29.3918C99.6938 29.2886 99.6699 29.1994 99.6699 29.1231C99.6699 28.998 99.7188 28.8899 99.8155 28.7992C99.9127 28.7079 100.032 28.6631 100.175 28.6631C100.324 28.6631 100.438 28.705 100.515 28.7897C100.593 28.8744 100.708 29.0434 100.863 29.2961L101.872 30.9345L102.892 29.2961C102.953 29.1954 103.005 29.1107 103.046 29.0419C103.088 28.9731 103.134 28.9088 103.184 28.849C103.235 28.7887 103.29 28.7428 103.352 28.7109C103.413 28.679 103.488 28.6631 103.576 28.6631C103.714 28.6631 103.829 28.7074 103.921 28.7972C104.013 28.8869 104.059 28.9906 104.059 29.1082C104.059 29.2039 104.035 29.2996 103.989 29.3958C103.942 29.491 103.862 29.6236 103.749 29.793L102.398 31.8661V33.5777C102.398 33.801 102.347 33.968 102.244 34.0787C102.141 34.1888 102.009 34.2441 101.85 34.2441C101.688 34.2441 101.557 34.1898 101.456 34.0802C101.355 33.971 101.305 33.8035 101.305 33.5777Z" fill="#23509E"/>
</g>
<mask id="mask15_178_1584" style="mask-type:luminance" maskUnits="userSpaceOnUse" x="-11" y="-30" width="213" height="100">
<path d="M-10.4668 -29.5343H201.469V69.3691H-10.4668V-29.5343Z" fill="white"/>
</mask>
<g mask="url(#mask15_178_1584)">
<path d="M111.296 32.4473C111.296 32.6192 111.254 32.8051 111.169 33.005C111.084 33.2054 110.951 33.4013 110.769 33.5942C110.588 33.7866 110.356 33.9431 110.074 34.0637C109.792 34.1838 109.463 34.2441 109.087 34.2441C108.803 34.2441 108.543 34.2167 108.311 34.1629C108.077 34.1091 107.866 34.0248 107.676 33.9107C107.485 33.7965 107.31 33.6465 107.151 33.4596C107.008 33.2901 106.887 33.1007 106.786 32.8909C106.686 32.681 106.61 32.4572 106.56 32.219C106.509 31.9807 106.484 31.728 106.484 31.4608C106.484 31.0262 106.548 30.6374 106.674 30.2935C106.8 29.9501 106.982 29.656 107.217 29.4117C107.453 29.1675 107.729 28.9816 108.045 28.854C108.362 28.7264 108.699 28.6626 109.058 28.6626C109.494 28.6626 109.884 28.7498 110.225 28.9243C110.566 29.0982 110.827 29.314 111.009 29.5702C111.191 29.8264 111.281 30.0692 111.281 30.297C111.281 30.4226 111.238 30.5327 111.149 30.6284C111.061 30.7246 110.954 30.772 110.829 30.772C110.689 30.772 110.584 30.7391 110.514 30.6728C110.444 30.6065 110.366 30.4924 110.28 30.3304C110.137 30.0627 109.97 29.8628 109.778 29.7302C109.585 29.5977 109.347 29.5314 109.065 29.5314C108.616 29.5314 108.258 29.7023 107.992 30.0433C107.726 30.3842 107.592 30.8692 107.592 31.4972C107.592 31.9174 107.652 32.2663 107.769 32.545C107.887 32.8236 108.054 33.0314 108.27 33.169C108.486 33.3066 108.739 33.3749 109.028 33.3749C109.343 33.3749 109.608 33.2971 109.825 33.1411C110.043 32.9856 110.207 32.7563 110.317 32.4547C110.364 32.3122 110.421 32.1965 110.49 32.1068C110.559 32.0171 110.669 31.9722 110.821 31.9722C110.951 31.9722 111.063 32.0181 111.156 32.1083C111.249 32.1995 111.296 32.3122 111.296 32.4473Z" fill="#23509E"/>
</g>
<mask id="mask16_178_1584" style="mask-type:luminance" maskUnits="userSpaceOnUse" x="-11" y="-30" width="213" height="100">
<path d="M-10.4668 -29.5343H201.469V69.3691H-10.4668V-29.5343Z" fill="white"/>
</mask>
<g mask="url(#mask16_178_1584)">
<path d="M116.208 31.4389C116.208 31.0436 116.144 30.7012 116.016 30.4116C115.889 30.122 115.706 29.9032 115.47 29.7547C115.233 29.6061 114.961 29.5319 114.654 29.5319C114.436 29.5319 114.234 29.5732 114.048 29.655C113.863 29.7377 113.704 29.8573 113.57 30.0139C113.436 30.1709 113.331 30.3717 113.253 30.616C113.176 30.8602 113.137 31.1344 113.137 31.4389C113.137 31.7454 113.176 32.0231 113.253 32.2708C113.331 32.519 113.44 32.7244 113.581 32.8874C113.722 33.0509 113.884 33.173 114.067 33.2537C114.25 33.335 114.45 33.3754 114.669 33.3754C114.949 33.3754 115.206 33.3056 115.44 33.1655C115.674 33.0254 115.861 32.8096 116 32.5175C116.138 32.2254 116.208 31.8661 116.208 31.4389ZM114.654 28.6631C115.214 28.6631 115.694 28.7767 116.095 29.0035C116.497 29.2308 116.8 29.5533 117.007 29.972C117.213 30.3902 117.316 30.8816 117.316 31.4464C117.316 31.8636 117.259 32.2429 117.147 32.5838C117.034 32.9253 116.864 33.2208 116.638 33.4711C116.413 33.7213 116.135 33.9127 115.806 34.0453C115.478 34.1778 115.101 34.2441 114.676 34.2441C114.254 34.2441 113.876 34.1764 113.542 34.0398C113.208 33.9037 112.93 33.7118 112.707 33.4636C112.483 33.2159 112.314 32.9178 112.2 32.5694C112.086 32.2205 112.029 31.8436 112.029 31.4389C112.029 31.0242 112.089 30.6439 112.208 30.2975C112.327 29.9516 112.499 29.657 112.725 29.4142C112.951 29.171 113.226 28.9851 113.55 28.856C113.874 28.7274 114.242 28.6631 114.654 28.6631Z" fill="#23509E"/>
</g>
<mask id="mask17_178_1584" style="mask-type:luminance" maskUnits="userSpaceOnUse" x="-11" y="-30" width="213" height="100">
<path d="M-10.4668 -29.5343H201.469V69.3691H-10.4668V-29.5343Z" fill="white"/>
</mask>
<g mask="url(#mask17_178_1584)">
<path d="M119.676 29.318L121.778 32.4991V29.2886C121.778 29.0803 121.823 28.9238 121.912 28.8191C122.001 28.7149 122.123 28.6631 122.275 28.6631C122.432 28.6631 122.556 28.7149 122.646 28.8191C122.738 28.9238 122.783 29.0803 122.783 29.2886V33.5334C122.783 34.0074 122.587 34.2441 122.194 34.2441C122.096 34.2441 122.007 34.2302 121.929 34.2018C121.85 34.1734 121.777 34.1285 121.708 34.0672C121.639 34.0059 121.575 33.9341 121.516 33.8519C121.458 33.7696 121.399 33.6859 121.34 33.5997L119.289 30.456V33.6181C119.289 33.8245 119.242 33.9805 119.145 34.0856C119.05 34.1913 118.927 34.2441 118.777 34.2441C118.623 34.2441 118.499 34.1908 118.406 34.0836C118.312 33.9775 118.266 33.822 118.266 33.6181V29.4541C118.266 29.2777 118.285 29.1391 118.324 29.0384C118.371 28.9278 118.449 28.8375 118.557 28.7678C118.664 28.6975 118.781 28.6631 118.906 28.6631C119.004 28.6631 119.089 28.679 119.158 28.7104C119.228 28.7423 119.29 28.7857 119.343 28.8395C119.395 28.8934 119.449 28.9636 119.505 29.0494C119.56 29.1351 119.617 29.2248 119.676 29.318Z" fill="#23509E"/>
</g>
<mask id="mask18_178_1584" style="mask-type:luminance" maskUnits="userSpaceOnUse" x="-11" y="-30" width="213" height="100">
<path d="M-10.4668 -29.5343H201.469V69.3691H-10.4668V-29.5343Z" fill="white"/>
</mask>
<g mask="url(#mask18_178_1584)">
<path d="M127.535 29.5981H125.072V30.9234H127.34C127.507 30.9234 127.631 30.9608 127.713 31.0361C127.796 31.1108 127.836 31.2095 127.836 31.3322C127.836 31.4548 127.796 31.555 127.715 31.6322C127.634 31.7095 127.509 31.7479 127.34 31.7479H125.072V33.2831H127.62C127.792 33.2831 127.921 33.3234 128.008 33.4027C128.095 33.4829 128.139 33.5891 128.139 33.7217C128.139 33.8493 128.095 33.953 128.008 34.0327C127.921 34.1125 127.792 34.1523 127.62 34.1523H124.648C124.41 34.1523 124.239 34.0995 124.135 33.9938C124.03 33.8887 123.979 33.7177 123.979 33.4824V29.4251C123.979 29.2681 124.002 29.1395 124.048 29.0403C124.095 28.9411 124.168 28.8689 124.268 28.823C124.367 28.7776 124.494 28.7552 124.648 28.7552H127.535C127.709 28.7552 127.838 28.7936 127.923 28.8708C128.008 28.9481 128.05 29.0493 128.05 29.1749C128.05 29.3025 128.008 29.4047 127.923 29.4824C127.838 29.5597 127.709 29.5981 127.535 29.5981Z" fill="#23509E"/>
</g>
<mask id="mask19_178_1584" style="mask-type:luminance" maskUnits="userSpaceOnUse" x="-11" y="-30" width="213" height="100">
<path d="M-10.4668 -29.5343H201.469V69.3691H-10.4668V-29.5343Z" fill="white"/>
</mask>
<g mask="url(#mask19_178_1584)">
<path d="M128.81 33.1027L130.017 31.3392L129.001 29.7706C128.905 29.6186 128.834 29.488 128.786 29.3788C128.738 29.2697 128.714 29.1645 128.714 29.0643C128.714 28.9612 128.76 28.8684 128.852 28.7862C128.944 28.704 129.056 28.6626 129.189 28.6626C129.341 28.6626 129.46 28.7074 129.544 28.7972C129.629 28.8869 129.746 29.0529 129.896 29.2961L130.706 30.6065L131.571 29.2961C131.642 29.1854 131.703 29.0912 131.753 29.0125C131.803 28.9342 131.852 28.8689 131.899 28.8176C131.945 28.7658 131.997 28.7269 132.055 28.7015C132.113 28.6755 132.18 28.6626 132.255 28.6626C132.393 28.6626 132.505 28.704 132.593 28.7862C132.68 28.8684 132.723 28.9661 132.723 29.0788C132.723 29.2433 132.629 29.4666 132.44 29.7487L131.376 31.3392L132.521 33.1027C132.624 33.2572 132.699 33.3858 132.745 33.4875C132.792 33.5892 132.815 33.6854 132.815 33.7766C132.815 33.8623 132.794 33.9411 132.752 34.0119C132.711 34.0831 132.652 34.14 132.576 34.1813C132.5 34.2232 132.414 34.2441 132.318 34.2441C132.215 34.2441 132.128 34.2227 132.057 34.1793C131.986 34.137 131.928 34.0831 131.884 34.0193C131.84 33.9555 131.757 33.8314 131.637 33.6475L130.687 32.1527L129.678 33.6919C129.6 33.8145 129.544 33.9002 129.511 33.9496C129.478 33.9989 129.438 34.0463 129.391 34.0931C129.345 34.14 129.29 34.1764 129.226 34.2033C129.162 34.2307 129.087 34.2441 129.001 34.2441C128.868 34.2441 128.759 34.2033 128.672 34.1225C128.584 34.0418 128.541 33.9236 128.541 33.7691C128.541 33.5877 128.631 33.3654 128.81 33.1027Z" fill="#23509E"/>
</g>
<mask id="mask20_178_1584" style="mask-type:luminance" maskUnits="userSpaceOnUse" x="-11" y="-30" width="213" height="100">
<path d="M-10.4668 -29.5343H201.469V69.3691H-10.4668V-29.5343Z" fill="white"/>
</mask>
<g mask="url(#mask20_178_1584)">
<path d="M133.607 33.5777V29.3255C133.607 29.1047 133.658 28.9387 133.758 28.8286C133.859 28.7179 133.989 28.6631 134.149 28.6631C134.313 28.6631 134.446 28.7174 134.548 28.8266C134.65 28.9357 134.701 29.1022 134.701 29.3255V33.5777C134.701 33.801 134.65 33.968 134.548 34.0787C134.446 34.1888 134.313 34.2441 134.149 34.2441C133.992 34.2441 133.862 34.1883 133.76 34.0767C133.659 33.965 133.607 33.7985 133.607 33.5777Z" fill="#23509E"/>
</g>
<mask id="mask21_178_1584" style="mask-type:luminance" maskUnits="userSpaceOnUse" x="-11" y="-30" width="213" height="100">
<path d="M-10.4668 -29.5343H201.469V69.3691H-10.4668V-29.5343Z" fill="white"/>
</mask>
<g mask="url(#mask21_178_1584)">
<path d="M139.85 31.4389C139.85 31.0436 139.787 30.7012 139.659 30.4116C139.531 30.122 139.349 29.9032 139.112 29.7547C138.875 29.6061 138.604 29.5319 138.297 29.5319C138.078 29.5319 137.876 29.5732 137.691 29.655C137.506 29.7377 137.346 29.8573 137.213 30.0139C137.078 30.1709 136.973 30.3717 136.896 30.616C136.818 30.8602 136.78 31.1344 136.78 31.4389C136.78 31.7454 136.818 32.0231 136.896 32.2708C136.973 32.519 137.082 32.7244 137.224 32.8874C137.365 33.0509 137.527 33.173 137.71 33.2537C137.892 33.335 138.093 33.3754 138.311 33.3754C138.591 33.3754 138.848 33.3056 139.083 33.1655C139.317 33.0254 139.503 32.8096 139.642 32.5175C139.781 32.2254 139.85 31.8661 139.85 31.4389ZM138.297 28.6631C138.856 28.6631 139.337 28.7767 139.738 29.0035C140.139 29.2308 140.443 29.5533 140.649 29.972C140.856 30.3902 140.958 30.8816 140.958 31.4464C140.958 31.8636 140.902 32.2429 140.789 32.5838C140.676 32.9253 140.507 33.2208 140.281 33.4711C140.055 33.7213 139.778 33.9127 139.449 34.0453C139.12 34.1778 138.743 34.2441 138.319 34.2441C137.897 34.2441 137.519 34.1764 137.185 34.0398C136.851 33.9037 136.573 33.7118 136.349 33.4636C136.125 33.2159 135.957 32.9178 135.843 32.5694C135.729 32.2205 135.672 31.8436 135.672 31.4389C135.672 31.0242 135.731 30.6439 135.85 30.2975C135.969 29.9516 136.142 29.657 136.368 29.4142C136.593 29.171 136.868 28.9851 137.192 28.856C137.517 28.7274 137.884 28.6631 138.297 28.6631Z" fill="#23509E"/>
</g>
<mask id="mask22_178_1584" style="mask-type:luminance" maskUnits="userSpaceOnUse" x="-11" y="-30" width="213" height="100">
<path d="M-10.4668 -29.5343H201.469V69.3691H-10.4668V-29.5343Z" fill="white"/>
</mask>
<g mask="url(#mask22_178_1584)">
<path d="M143.318 29.318L145.42 32.4991V29.2886C145.42 29.0803 145.465 28.9238 145.555 28.8191C145.645 28.7149 145.765 28.6631 145.917 28.6631C146.075 28.6631 146.198 28.7149 146.289 28.8191C146.38 28.9238 146.426 29.0803 146.426 29.2886V33.5334C146.426 34.0074 146.229 34.2441 145.836 34.2441C145.738 34.2441 145.65 34.2302 145.571 34.2018C145.493 34.1734 145.419 34.1285 145.35 34.0672C145.282 34.0059 145.218 33.9341 145.159 33.8519C145.1 33.7696 145.041 33.6859 144.983 33.5997L142.932 30.456V33.6181C142.932 33.8245 142.884 33.9805 142.788 34.0856C142.692 34.1913 142.57 34.2441 142.42 34.2441C142.266 34.2441 142.141 34.1908 142.048 34.0836C141.955 33.9775 141.908 33.822 141.908 33.6181V29.4541C141.908 29.2777 141.928 29.1391 141.967 29.0384C142.014 28.9278 142.091 28.8375 142.199 28.7678C142.307 28.6975 142.424 28.6631 142.549 28.6631C142.647 28.6631 142.731 28.679 142.801 28.7104C142.871 28.7423 142.933 28.7857 142.985 28.8395C143.038 28.8934 143.092 28.9636 143.147 29.0494C143.202 29.1351 143.259 29.2248 143.318 29.318Z" fill="#23509E"/>
</g>
<mask id="mask23_178_1584" style="mask-type:luminance" maskUnits="userSpaceOnUse" x="-11" y="-30" width="213" height="100">
<path d="M-10.4668 -29.5343H201.469V69.3691H-10.4668V-29.5343Z" fill="white"/>
</mask>
<g mask="url(#mask23_178_1584)">
<path d="M151.179 29.5981H148.717V30.9234H150.985C151.152 30.9234 151.276 30.9608 151.358 31.0361C151.44 31.1108 151.481 31.2095 151.481 31.3322C151.481 31.4548 151.441 31.555 151.36 31.6322C151.279 31.7095 151.154 31.7479 150.985 31.7479H148.717V33.2831H151.264C151.436 33.2831 151.565 33.3234 151.652 33.4027C151.74 33.4829 151.784 33.5891 151.784 33.7217C151.784 33.8493 151.74 33.953 151.652 34.0327C151.565 34.1125 151.436 34.1523 151.264 34.1523H148.293C148.055 34.1523 147.884 34.0995 147.78 33.9938C147.675 33.8887 147.623 33.7177 147.623 33.4824V29.4251C147.623 29.2681 147.646 29.1395 147.693 29.0403C147.74 28.9411 147.812 28.8689 147.912 28.823C148.011 28.7776 148.138 28.7552 148.293 28.7552H151.179C151.354 28.7552 151.483 28.7936 151.568 28.8708C151.652 28.9481 151.695 29.0493 151.695 29.1749C151.695 29.3025 151.652 29.4047 151.568 29.4824C151.483 29.5597 151.354 29.5981 151.179 29.5981Z" fill="#23509E"/>
</g>
<mask id="mask24_178_1584" style="mask-type:luminance" maskUnits="userSpaceOnUse" x="-11" y="-30" width="213" height="100">
<path d="M-10.4668 -29.5343H201.469V69.3691H-10.4668V-29.5343Z" fill="white"/>
</mask>
<g mask="url(#mask24_178_1584)">
<path d="M156.752 32.5325C156.752 32.859 156.668 33.1521 156.5 33.4122C156.332 33.6724 156.086 33.8763 155.762 34.0233C155.438 34.1709 155.053 34.2441 154.609 34.2441C154.077 34.2441 153.637 34.144 153.291 33.9426C153.046 33.7975 152.846 33.6046 152.693 33.3624C152.54 33.1207 152.463 32.8859 152.463 32.6576C152.463 32.525 152.509 32.4119 152.601 32.3172C152.693 32.2225 152.81 32.1756 152.952 32.1756C153.068 32.1756 153.166 32.212 153.245 32.2858C153.325 32.3595 153.393 32.4687 153.45 32.6137C153.518 32.7852 153.593 32.9288 153.672 33.0444C153.752 33.1595 153.864 33.2547 154.009 33.3295C154.154 33.4043 154.344 33.4421 154.58 33.4421C154.904 33.4421 155.167 33.3664 155.369 33.2154C155.572 33.0643 155.673 32.8759 155.673 32.6501C155.673 32.4712 155.619 32.3256 155.509 32.214C155.4 32.1023 155.259 32.0171 155.086 31.9583C154.913 31.899 154.681 31.8367 154.392 31.7704C154.004 31.6797 153.68 31.5735 153.418 31.4519C153.157 31.3307 152.949 31.1648 152.796 30.9549C152.643 30.7451 152.566 30.4844 152.566 30.1729C152.566 29.8758 152.647 29.6116 152.809 29.3813C152.971 29.1506 153.206 28.9731 153.512 28.849C153.819 28.7249 154.18 28.6631 154.595 28.6631C154.926 28.6631 155.212 28.7045 155.454 28.7867C155.696 28.8689 155.897 28.9781 156.056 29.1142C156.216 29.2502 156.332 29.3933 156.406 29.5433C156.479 29.6929 156.516 29.8389 156.516 29.981C156.516 30.1116 156.47 30.2287 156.378 30.3329C156.286 30.437 156.171 30.4889 156.034 30.4889C155.909 30.4889 155.813 30.458 155.749 30.3952C155.684 30.3329 155.613 30.2302 155.537 30.0876C155.439 29.8843 155.321 29.7253 155.183 29.6111C155.046 29.497 154.825 29.4402 154.521 29.4402C154.239 29.4402 154.011 29.502 153.838 29.6261C153.665 29.7497 153.578 29.8992 153.578 30.0732C153.578 30.1813 153.608 30.2745 153.667 30.3533C153.726 30.4316 153.807 30.4988 153.91 30.5557C154.013 30.612 154.117 30.6564 154.223 30.6883C154.328 30.7202 154.503 30.7665 154.746 30.8278C155.05 30.8991 155.325 30.9778 155.572 31.0636C155.819 31.1498 156.029 31.254 156.201 31.3766C156.375 31.4992 156.51 31.6542 156.606 31.8421C156.704 32.0301 156.752 32.2603 156.752 32.5325Z" fill="#23509E"/>
</g>
<mask id="mask25_178_1584" style="mask-type:luminance" maskUnits="userSpaceOnUse" x="-11" y="-30" width="213" height="100">
<path d="M-10.4668 -29.5343H201.469V69.3691H-10.4668V-29.5343Z" fill="white"/>
</mask>
<g mask="url(#mask25_178_1584)">
<path d="M160.666 29.62V33.2831H161.494C161.676 33.2831 161.818 33.2781 161.921 33.2686C162.025 33.2586 162.131 33.2342 162.241 33.1948C162.352 33.1555 162.448 33.1006 162.529 33.0289C162.894 32.7198 163.077 32.1875 163.077 31.4313C163.077 30.899 162.997 30.4998 162.836 30.2351C162.676 29.9699 162.477 29.8009 162.241 29.7287C162.006 29.6564 161.722 29.62 161.388 29.62H160.666ZM160.243 28.7547H161.667C162.038 28.7547 162.356 28.7891 162.621 28.8579C162.886 28.9267 163.127 29.0553 163.342 29.2447C163.904 29.7257 164.185 30.4569 164.185 31.4388C164.185 31.7628 164.157 32.0584 164.101 32.3261C164.044 32.5937 163.958 32.8345 163.839 33.0493C163.721 33.2641 163.571 33.4565 163.387 33.6255C163.242 33.7556 163.083 33.8603 162.912 33.9385C162.74 34.0173 162.555 34.0721 162.358 34.104C162.16 34.1364 161.937 34.1523 161.69 34.1523H160.265C160.066 34.1523 159.916 34.1219 159.816 34.0616C159.715 34.0018 159.649 33.9171 159.619 33.8079C159.588 33.6988 159.572 33.5567 159.572 33.3827V29.4251C159.572 29.1894 159.625 29.0189 159.731 28.9132C159.836 28.8075 160.007 28.7547 160.243 28.7547Z" fill="#23509E"/>
</g>
<mask id="mask26_178_1584" style="mask-type:luminance" maskUnits="userSpaceOnUse" x="-11" y="-30" width="213" height="100">
<path d="M-10.4668 -29.5343H201.469V69.3691H-10.4668V-29.5343Z" fill="white"/>
</mask>
<g mask="url(#mask26_178_1584)">
<path d="M168.703 29.5981H166.24V30.9234H168.507C168.674 30.9234 168.799 30.9608 168.881 31.0361C168.964 31.1108 169.004 31.2095 169.004 31.3322C169.004 31.4548 168.964 31.555 168.883 31.6322C168.802 31.7095 168.677 31.7479 168.507 31.7479H166.24V33.2831H168.788C168.96 33.2831 169.089 33.3234 169.176 33.4027C169.263 33.4829 169.306 33.5891 169.306 33.7217C169.306 33.8493 169.263 33.953 169.176 34.0327C169.089 34.1125 168.96 34.1523 168.788 34.1523H165.816C165.578 34.1523 165.407 34.0995 165.303 33.9938C165.198 33.8887 165.146 33.7177 165.146 33.4824V29.4251C165.146 29.2681 165.17 29.1395 165.216 29.0403C165.263 28.9411 165.336 28.8689 165.436 28.823C165.535 28.7776 165.662 28.7552 165.816 28.7552H168.703C168.877 28.7552 169.006 28.7936 169.091 28.8708C169.176 28.9481 169.218 29.0493 169.218 29.1749C169.218 29.3025 169.176 29.4047 169.091 29.4824C169.006 29.5597 168.877 29.5981 168.703 29.5981Z" fill="#23509E"/>
</g>
<mask id="mask27_178_1584" style="mask-type:luminance" maskUnits="userSpaceOnUse" x="-11" y="-30" width="213" height="100">
<path d="M-10.4668 -29.5343H201.469V69.3691H-10.4668V-29.5343Z" fill="white"/>
</mask>
<g mask="url(#mask27_178_1584)">
<path d="M173.89 29.5762H173.154V31.2256H173.89C174.148 31.2256 174.363 31.1987 174.536 31.1443C174.71 31.0905 174.841 31.0023 174.933 30.8797C175.023 30.757 175.068 30.596 175.068 30.3972C175.068 30.1589 174.998 29.965 174.859 29.8155C174.702 29.656 174.379 29.5762 173.89 29.5762ZM174.156 32.05H173.154V33.5782C173.154 33.7965 173.102 33.962 172.999 34.0752C172.896 34.1878 172.766 34.2441 172.609 34.2441C172.445 34.2441 172.312 34.1888 172.212 34.0772C172.111 33.9655 172.061 33.8015 172.061 33.5857V29.4252C172.061 29.1845 172.116 29.013 172.227 28.9098C172.337 28.8066 172.512 28.7553 172.753 28.7553H174.156C174.57 28.7553 174.889 28.7872 175.113 28.851C175.334 28.9123 175.524 29.014 175.685 29.1565C175.846 29.2991 175.968 29.4731 176.052 29.6794C176.135 29.8853 176.177 30.117 176.177 30.3747C176.177 30.925 176.007 31.3417 175.669 31.6248C175.33 31.9084 174.825 32.05 174.156 32.05Z" fill="#23509E"/>
</g>
<mask id="mask28_178_1584" style="mask-type:luminance" maskUnits="userSpaceOnUse" x="-11" y="-30" width="213" height="100">
<path d="M-10.4668 -29.5343H201.469V69.3691H-10.4668V-29.5343Z" fill="white"/>
</mask>
<g mask="url(#mask28_178_1584)">
<path d="M177.888 29.3808L179.11 33L180.336 29.3554C180.4 29.1635 180.448 29.0304 180.48 28.9557C180.512 28.8809 180.565 28.8131 180.638 28.7533C180.712 28.693 180.812 28.6631 180.94 28.6631C181.033 28.6631 181.12 28.6865 181.2 28.7329C181.279 28.7797 181.342 28.8415 181.387 28.9188C181.433 28.9965 181.455 29.0743 181.455 29.1526C181.455 29.2064 181.448 29.2652 181.433 29.3275C181.418 29.3903 181.4 29.4511 181.378 29.5114C181.356 29.5717 181.334 29.634 181.312 29.6973L180.005 33.2243C179.959 33.3594 179.912 33.4875 179.865 33.6091C179.818 33.7307 179.764 33.8374 179.703 33.9296C179.641 34.0213 179.56 34.0971 179.458 34.1559C179.356 34.2147 179.232 34.2441 179.084 34.2441C178.937 34.2441 178.813 34.2152 178.711 34.1579C178.609 34.1001 178.526 34.0238 178.464 33.9296C178.401 33.8349 178.347 33.7278 178.3 33.6071C178.254 33.487 178.207 33.3594 178.161 33.2243L176.876 29.7268C176.854 29.663 176.831 29.6007 176.807 29.5393C176.784 29.478 176.764 29.4117 176.749 29.3405C176.733 29.2692 176.725 29.2089 176.725 29.16C176.725 29.0349 176.775 28.9208 176.876 28.8176C176.976 28.7144 177.102 28.6631 177.255 28.6631C177.441 28.6631 177.573 28.7199 177.65 28.834C177.728 28.9482 177.807 29.1306 177.888 29.3808Z" fill="#23509E"/>
</g>
<mask id="mask29_178_1584" style="mask-type:luminance" maskUnits="userSpaceOnUse" x="-11" y="-30" width="213" height="100">
<path d="M-10.4668 -29.5343H201.469V69.3691H-10.4668V-29.5343Z" fill="white"/>
</mask>
<g mask="url(#mask29_178_1584)">
<path d="M186.777 32.4473C186.777 32.6192 186.734 32.8051 186.65 33.005C186.565 33.2054 186.432 33.4013 186.25 33.5942C186.069 33.7866 185.837 33.9431 185.555 34.0637C185.272 34.1838 184.943 34.2441 184.568 34.2441C184.283 34.2441 184.024 34.2167 183.791 34.1629C183.558 34.1091 183.346 34.0248 183.156 33.9107C182.966 33.7965 182.791 33.6465 182.631 33.4596C182.489 33.2901 182.368 33.1007 182.267 32.8909C182.166 32.681 182.09 32.4572 182.041 32.219C181.99 31.9807 181.965 31.728 181.965 31.4608C181.965 31.0262 182.028 30.6374 182.155 30.2935C182.281 29.9501 182.462 29.656 182.698 29.4117C182.933 29.1675 183.209 28.9816 183.526 28.854C183.842 28.7264 184.18 28.6626 184.538 28.6626C184.975 28.6626 185.364 28.7498 185.705 28.9243C186.047 29.0982 186.308 29.314 186.49 29.5702C186.671 29.8264 186.762 30.0692 186.762 30.297C186.762 30.4226 186.718 30.5327 186.63 30.6284C186.541 30.7246 186.434 30.772 186.309 30.772C186.169 30.772 186.065 30.7391 185.994 30.6728C185.924 30.6065 185.846 30.4924 185.76 30.3304C185.618 30.0627 185.45 29.8628 185.258 29.7302C185.065 29.5977 184.828 29.5314 184.546 29.5314C184.097 29.5314 183.739 29.7023 183.473 30.0433C183.206 30.3842 183.073 30.8692 183.073 31.4972C183.073 31.9174 183.132 32.2663 183.25 32.545C183.367 32.8236 183.534 33.0314 183.75 33.169C183.967 33.3066 184.219 33.3749 184.509 33.3749C184.823 33.3749 185.089 33.2971 185.306 33.1411C185.523 32.9856 185.687 32.7563 185.797 32.4547C185.844 32.3122 185.902 32.1965 185.97 32.1068C186.039 32.0171 186.15 31.9722 186.302 31.9722C186.432 31.9722 186.544 32.0181 186.637 32.1083C186.73 32.1995 186.777 32.3122 186.777 32.4473Z" fill="#23509E"/>
</g>
</g>
<defs>
<clipPath id="clip0_178_1584">
<rect width="191.028" height="40" fill="white"/>
</clipPath>
</defs>
</svg>
