<svg width="12081" height="2858" xmlns="http://www.w3.org/2000/svg" xmlns:xlink="http://www.w3.org/1999/xlink" xml:space="preserve" overflow="hidden"><g transform="translate(-1105 0)"><g><g><g><g><path d="M4253.49 2689.64C4253.49 2703.53 4248.15 2716.91 4237.43 2729.73 4172.14 2814.2 4108.45 2879.96 4046.39 2927.02 4036.74 2934.48 4028.45 2939.03 4021.51 2940.63 4014.54 2942.25 4003.03 2943.05 3986.99 2943.05L3961.29 2943.05C3887.44 2943.05 3819.75 2966.03 3758.21 3012.01 3696.67 3057.99 3646.09 3123.73 3606.5 3209.27 3650.38 3288.4 3701.49 3345.35 3759.81 3380.09 3818.15 3414.83 3885.31 3432.21 3961.29 3432.21L3986.99 3432.21C4004.1 3432.21 4015.89 3433.01 4022.31 3434.61 4028.73 3436.21 4036.74 3440.76 4046.39 3448.25 4105.26 3491.01 4168.95 3555.17 4237.43 3640.72 4248.15 3654.6 4253.49 3667.44 4253.49 3679.21 4253.49 3693.09 4248.15 3705.93 4237.43 3717.7 4172.14 3801.09 4108.45 3865.26 4046.39 3910.16 4036.74 3917.63 4028.45 3922.18 4021.51 3923.78 4014.54 3925.4 4003.03 3926.2 3986.99 3926.2L3961.29 3926.2C3833.94 3926.2 3721.54 3897.85 3624.16 3841.18 3526.75 3784.51 3444.88 3706.46 3378.52 3607.02 3305.73 3736.4 3208.6 3832.36 3087.11 3894.93 2965.65 3957.47 2824.64 3988.74 2664.09 3988.74 2626.62 3988.74 2602 3984.47 2590.23 3975.9 2578.47 3967.36 2572.57 3948.65 2572.57 3919.78L2572.57 3538.06C2572.57 3517.76 2578.19 3503.32 2589.43 3494.76 2600.67 3486.21 2620.73 3481.94 2649.63 3481.94 2725.63 3481.94 2789.85 3474.97 2842.3 3461.09 2894.75 3447.18 2944.5 3419.38 2991.6 3377.69 3038.69 3335.98 3084.72 3275.04 3129.68 3194.84 3065.46 3083.64 2995.08 3005.59 2918.55 2960.68 2842.02 2915.78 2746.51 2893.32 2631.97 2893.32 2608.44 2893.32 2592.63 2890.13 2584.61 2883.71 2576.6 2877.29 2572.57 2863.38 2572.57 2842L2572.57 2468.31C2572.57 2442.65 2579.54 2424.47 2593.46 2413.78 2607.37 2403.09 2630.9 2397.74 2664.09 2397.74 2816.07 2397.74 2948.52 2428.75 3061.44 2490.76 3174.36 2552.77 3274.16 2655.95 3360.86 2800.31 3424 2686.97 3509.37 2597.95 3616.92 2533.26 3724.49 2468.58 3839.28 2436.23 3961.29 2436.23L3986.99 2436.23C4004.1 2436.23 4015.89 2437.03 4022.31 2438.64 4028.73 2440.24 4036.74 2444.79 4046.39 2452.27 4105.26 2497.18 4168.95 2562.93 4237.43 2649.55 4248.15 2664.51 4253.49 2677.88 4253.49 2689.64Z" fill="#06B6D4" fill-rule="evenodd" transform="matrix(1.00004 0 0 1 192.327 -1750.74)"/><path d="M2367.77 2510.13 2367.77 3876.35 2030.59 3876.35 2030.59 2510.13 2367.77 2510.13Z" fill="#111827" fill-rule="evenodd" transform="matrix(1.00004 0 0 1 192.327 -1750.74)"/></g></g></g></g><path d="M12761.3 600C12841.9 600 12914.5 617.571 12979.2 652.714 13043.9 687.857 13094.5 736.872 13131.1 799.759 13167.7 862.646 13186 934.042 13186 1013.94 13186 1092.37 13167.1 1163.21 13129.4 1226.47 13091.7 1289.72 13040 1339.29 12974.2 1375.18 12908.4 1411.06 12835.9 1429 12756.8 1429 12675.5 1429 12602.5 1411.61 12537.8 1376.84 12473.1 1342.07 12422.5 1293.42 12385.9 1230.91 12349.3 1168.39 12331 1096.81 12331 1016.16 12331 937 12350 865.791 12388.1 802.533 12426.2 739.276 12477.9 689.707 12543.4 653.824 12608.8 617.941 12681.4 600 12761.3 600ZM12759.1 686.562C12694.7 686.562 12637.6 700.434 12587.7 728.179 12537.8 755.923 12499 794.58 12471.3 844.15 12443.6 893.72 12429.7 950.318 12429.7 1013.94 12429.7 1078.31 12443.7 1135.47 12471.8 1185.4 12499.9 1235.34 12538.9 1274 12588.8 1301.38 12638.7 1328.75 12695.5 1342.44 12759.1 1342.44 12821.9 1342.44 12878.3 1328.38 12928.2 1300.27 12978.1 1272.15 13017.3 1233.31 13045.7 1183.74 13074.2 1134.17 13088.4 1077.94 13088.4 1015.05 13088.4 951.428 13074.4 894.645 13046.3 844.705 13018.2 794.765 12979.2 755.923 12929.3 728.179 12879.4 700.434 12822.6 686.562 12759.1 686.562Z" fill="#111827" fill-rule="evenodd"/><path d="M8178.16 608C8186.29 608 8195.91 612.439 8207 621.315 8270.61 673.097 8320.91 724.508 8357.89 775.55 8363.07 782.947 8366.4 789.235 8367.88 794.413 8369.36 799.591 8370.1 808.098 8370.1 819.933 8370.1 903.523 8385.26 1009.12 8415.58 1136.72 8445.91 1264.33 8486.59 1392.67 8537.63 1521.75 8588.66 1650.84 8643.03 1759.39 8700.72 1847.42L8707.38 1847.42C8770.25 1760.87 8826.83 1653.8 8877.12 1526.19 8927.42 1398.59 8966.81 1270.99 8995.28 1143.38 9023.76 1015.78 9038 908.331 9038 821.043 9038 808.468 9038.55 799.776 9039.66 794.968 9040.77 790.159 9043.92 783.686 9049.09 775.55 9084.6 726.727 9133.41 675.316 9195.54 621.315 9201.46 616.137 9206.64 612.623 9211.08 610.774 9215.51 608.925 9220.69 608 9226.61 608 9234.75 608 9244.36 612.439 9255.46 621.315 9319.06 675.316 9367.88 726.727 9401.91 775.55 9407.08 782.947 9410.23 789.235 9411.34 794.413 9412.45 799.591 9413 808.468 9413 821.043 9413 928.304 9388.96 1064.23 9340.88 1228.82 9292.81 1393.41 9231.05 1559.48 9155.6 1727.03 9080.16 1894.58 9004.34 2035.68 8928.16 2150.34 8908.19 2180.67 8885.82 2202.86 8861.04 2216.92 8836.26 2230.97 8806.12 2238 8770.62 2238L8617.51 2238C8583.48 2238 8553.9 2230.97 8528.75 2216.92 8503.6 2202.86 8481.41 2180.67 8462.18 2150.34 8382.3 2023.85 8305.56 1879.04 8231.97 1715.93 8158.37 1552.82 8098.65 1391.19 8052.79 1231.04 8006.93 1070.89 7984 933.852 7984 819.933 7984 808.098 7984.56 799.776 7985.66 794.968 7986.77 790.159 7990.29 783.686 7996.2 775.55 8031.71 725.987 8082 674.576 8147.09 621.315 8158.19 612.439 8168.54 608 8178.16 608Z" fill="#111827" fill-rule="evenodd"/><path d="M11032.2 608C11041.1 608 11050.4 612.439 11060 621.315 11118.4 673.097 11165.1 724.508 11199.8 775.55 11205 782.947 11208.2 789.604 11209.3 795.522 11210.4 801.44 11210.9 811.057 11210.9 824.372L11210.9 932.003C11210.9 972.688 11222 1015.22 11244.2 1059.61 11266.4 1103.99 11298.4 1146.52 11340.2 1187.21 11382.1 1227.9 11431.1 1262.66 11487.3 1291.51 11646.4 1210.14 11726 1090.31 11726 932.003L11726 824.372C11726 810.317 11726.5 800.7 11727.6 795.522 11728.7 790.344 11731.9 783.686 11737.1 775.55 11768.9 727.467 11814 676.056 11872.5 621.315 11883.6 612.439 11892.8 608 11900.2 608 11909.1 608 11918.4 612.439 11928 621.315 11985 673.097 12030.1 724.508 12063.4 775.55 12068.6 782.947 12071.7 789.604 12072.8 795.522 12073.9 801.44 12074.5 811.057 12074.5 824.372L12074.5 932.003C12074.5 1048.14 12046.4 1148.74 11990.1 1233.81 11933.9 1318.88 11856.2 1389.16 11757 1444.64 11846.6 1497.9 11918.4 1554.3 11972.4 1613.85 12026.4 1673.4 12066.2 1743.49 12091.7 1824.12 12117.2 1904.75 12130 2002.77 12130 2118.16L12130 2179.19C12130 2201.38 12125.4 2216.73 12116.1 2225.24 12106.9 2233.75 12091.2 2238 12069 2238L11832.5 2238C11810.3 2238 11794.6 2233.75 11785.4 2225.24 11776.1 2216.73 11771.5 2201.38 11771.5 2179.19L11771.5 2118.16C11771.5 2033.09 11763.9 1962.45 11748.7 1906.23 11733.6 1850.01 11704.7 1798.6 11662.1 1752 11619.6 1705.39 11557.2 1659.9 11475.1 1615.52 11399.6 1656.94 11339.3 1701.32 11294.2 1748.67 11249 1796.01 11216.5 1849.46 11196.5 1909 11176.5 1968.55 11166.5 2038.27 11166.5 2118.16L11166.5 2179.19C11166.5 2201.38 11162.1 2216.73 11153.2 2225.24 11144.3 2233.75 11129.2 2238 11107.7 2238L10876.8 2238C10855.4 2238 10840.2 2233.75 10831.3 2225.24 10822.4 2216.73 10818 2201.38 10818 2179.19L10818 2118.16C10818 2006.46 10830.2 1912.7 10854.6 1836.88 10879 1761.06 10919 1693.93 10974.5 1635.49 11030 1577.05 11107.7 1518.61 11207.6 1460.17 11094.4 1395.08 11006.7 1317.4 10944.5 1227.16 10882.4 1136.91 10851.3 1038.52 10851.3 932.003L10851.3 824.372C10851.3 810.317 10851.9 800.7 10853 795.522 10854.1 790.344 10857.2 783.686 10862.4 775.55 10895.7 726.727 10942.3 675.316 11002.3 621.315 11008.2 616.137 11013.4 612.623 11017.8 610.774 11022.2 608.925 11027 608 11032.2 608Z" fill="#111827" fill-rule="evenodd"/><path d="M5439.99 647 5780.54 647C5947.67 647 6089.84 671.409 6207.06 720.226 6324.27 769.043 6415.23 850.775 6479.94 965.422 6544.65 1080.07 6577 1232.44 6577 1422.53 6577 1705.08 6507.12 1911.63 6367.35 2042.18 6227.58 2172.73 6031.98 2238 5780.54 2238L5439.99 2238C5363.82 2238 5306.32 2228.38 5267.5 2209.15 5228.67 2189.92 5202.05 2159.6 5187.63 2118.18 5173.21 2076.76 5166 2017.58 5166 1940.66L5166 944.342C5166 865.938 5173.03 806.026 5187.08 764.605 5201.13 723.184 5227.56 693.228 5266.39 674.737 5305.21 656.246 5363.08 647 5439.99 647ZM5650.75 938.794C5602.69 938.794 5569.59 948.964 5551.47 969.305 5533.36 989.646 5524.3 1025.33 5524.3 1076.37L5524.3 1808.63C5524.3 1859.67 5533.36 1895.54 5551.47 1916.25 5569.59 1936.96 5602.69 1947.32 5650.75 1947.32L5701.78 1947.32C5866.69 1947.32 5990.93 1907 6074.5 1826.38 6158.06 1745.76 6199.85 1612.62 6199.85 1426.97 6199.85 1302.7 6180.62 1204.89 6142.16 1133.51 6103.71 1062.13 6048.06 1011.84 5975.22 982.619 5902.38 953.402 5810.49 938.794 5699.56 938.794L5650.75 938.794Z" fill="#111827" fill-rule="evenodd"/><path d="M7127.9 647 7649.09 647C7660.92 647 7668.86 647.37 7672.93 648.109 7677 648.849 7682.36 651.438 7689.01 655.876 7728.93 683.243 7770.7 721.335 7814.32 770.153 7821.71 779.768 7825.41 787.534 7825.41 793.452 7825.41 800.109 7821.71 807.505 7814.32 815.641 7770.7 864.459 7728.93 902.551 7689.01 929.918 7682.36 933.617 7676.81 936.021 7672.38 937.13 7667.94 938.239 7660.18 938.794 7649.09 938.794L7338.59 938.794C7290.54 938.794 7257.46 948.964 7239.35 969.305 7221.23 989.646 7212.18 1025.33 7212.18 1076.37L7212.18 1291.61 7610.28 1291.61C7622.1 1291.61 7630.05 1291.98 7634.12 1292.72 7638.18 1293.46 7643.54 1296.05 7650.2 1300.49 7690.12 1327.85 7731.89 1365.95 7775.5 1414.76 7782.9 1424.38 7786.59 1432.15 7786.59 1438.06 7786.59 1444.72 7782.9 1452.12 7775.5 1460.25 7731.89 1509.07 7690.12 1547.16 7650.2 1574.53 7643.54 1578.23 7638 1580.63 7633.56 1581.74 7629.13 1582.85 7621.37 1583.4 7610.28 1583.4L7212.18 1583.4 7212.18 1807.52C7212.18 1858.56 7221.23 1894.43 7239.35 1915.14 7257.46 1935.85 7290.54 1946.21 7338.59 1946.21L7685.68 1946.21C7697.51 1946.21 7705.46 1946.58 7709.52 1947.32 7713.59 1948.05 7718.95 1950.64 7725.6 1955.08 7765.52 1982.45 7807.29 2020.54 7850.91 2069.36 7858.3 2078.97 7862 2086.74 7862 2092.66 7862 2099.31 7858.3 2106.71 7850.91 2114.85 7807.29 2163.66 7765.52 2201.76 7725.6 2229.12 7718.95 2232.82 7713.41 2235.23 7708.97 2236.34 7704.53 2237.45 7696.77 2238 7685.68 2238L7127.9 2238C7051.76 2238 6994.28 2228.38 6955.47 2209.15 6916.65 2189.92 6890.04 2159.6 6875.62 2118.18 6861.21 2076.76 6854 2017.58 6854 1940.66L6854 944.342C6854 865.938 6861.02 806.026 6875.07 764.605 6889.12 723.184 6915.54 693.228 6954.36 674.737 6993.17 656.246 7051.02 647 7127.9 647Z" fill="#111827" fill-rule="evenodd"/><path d="M9929.17 647 10450.9 647C10462.7 647 10470.7 647.37 10474.7 648.109 10478.8 648.849 10484.2 651.438 10490.8 655.876 10530.8 683.243 10572.6 721.335 10616.3 770.153 10623.7 779.768 10627.4 787.534 10627.4 793.452 10627.4 800.109 10623.7 807.505 10616.3 815.641 10572.6 864.459 10530.8 902.551 10490.8 929.918 10484.2 933.617 10478.6 936.021 10474.2 937.13 10469.7 938.239 10462 938.794 10450.9 938.794L10140.1 938.794C10092 938.794 10058.9 948.964 10040.7 969.305 10022.6 989.646 10013.5 1025.33 10013.5 1076.37L10013.5 1291.61 10412 1291.61C10423.9 1291.61 10431.8 1291.98 10435.9 1292.72 10440 1293.46 10445.3 1296.05 10452 1300.49 10491.9 1327.85 10533.8 1365.95 10577.4 1414.76 10584.8 1424.38 10588.5 1432.15 10588.5 1438.06 10588.5 1444.72 10584.8 1452.12 10577.4 1460.25 10533.8 1509.07 10491.9 1547.16 10452 1574.53 10445.3 1578.23 10439.8 1580.63 10435.3 1581.74 10430.9 1582.85 10423.1 1583.4 10412 1583.4L10013.5 1583.4 10013.5 1807.52C10013.5 1858.56 10022.6 1894.43 10040.7 1915.14 10058.9 1935.85 10092 1946.21 10140.1 1946.21L10487.5 1946.21C10499.3 1946.21 10507.3 1946.58 10511.4 1947.32 10515.4 1948.05 10520.8 1950.64 10527.5 1955.08 10567.4 1982.45 10609.2 2020.54 10652.9 2069.36 10660.3 2078.97 10664 2086.74 10664 2092.66 10664 2099.31 10660.3 2106.71 10652.9 2114.85 10609.2 2163.66 10567.4 2201.76 10527.5 2229.12 10520.8 2232.82 10515.3 2235.23 10510.8 2236.34 10506.4 2237.45 10498.6 2238 10487.5 2238L9929.17 2238C9852.95 2238 9795.42 2228.38 9756.57 2209.15 9717.71 2189.92 9691.08 2159.6 9676.65 2118.18 9662.21 2076.76 9655 2017.58 9655 1940.66L9655 944.342C9655 865.938 9662.03 806.026 9676.09 764.605 9690.15 723.184 9716.61 693.228 9755.46 674.737 9794.31 656.246 9852.21 647 9929.17 647Z" fill="#111827" fill-rule="evenodd"/><path d="M12637.1 765 12745.9 765C12814 765 12865.8 776.995 12901.4 800.984 12936.9 824.974 12954.7 859.483 12954.7 904.51 12954.7 939.203 12945.4 967.253 12926.9 988.659 12908.4 1010.07 12883.6 1024.09 12852.5 1030.73L12852.5 1032.95C12874 1039.59 12894.7 1066.17 12914.7 1112.67L12954.7 1206.78C12956.9 1211.21 12958 1215.64 12958 1220.07 12958 1225.98 12955.8 1230.77 12951.3 1234.46 12946.9 1238.15 12940.6 1240 12932.5 1240L12831.4 1240C12816.6 1240 12807 1232.62 12802.5 1217.86L12771.4 1123.74C12764.8 1103.81 12757.7 1089.42 12750.3 1080.56 12742.9 1071.7 12734.1 1067.27 12723.7 1067.27L12710.4 1067.27 12710.4 1217.86C12710.4 1223.76 12708.1 1228.93 12703.7 1233.36 12699.3 1237.79 12694.1 1240 12688.2 1240L12598.2 1240C12592.3 1240 12587.1 1237.79 12582.7 1233.36 12578.2 1228.93 12576 1223.76 12576 1217.86L12576 827.004C12576 804.86 12580.8 788.99 12590.4 779.394 12600.1 769.798 12615.6 765 12637.1 765ZM12718.1 864.65C12709.3 864.65 12704.8 869.448 12704.8 879.044L12704.8 975.373 12747 975.373C12769.2 975.373 12786.2 969.652 12798.1 958.211 12809.9 946.769 12815.9 932.56 12815.9 915.583 12815.9 897.867 12809.6 884.949 12797 876.83 12784.4 868.71 12764 864.65 12735.9 864.65L12718.1 864.65Z" fill="#111827" fill-rule="evenodd"/><path d="M9862 2406C9863.88 2406 9865.93 2407.03 9868.16 2409.08 9880.82 2421.06 9890.99 2432.95 9898.69 2444.75 9899.72 2446.46 9900.36 2448 9900.62 2449.37 9900.87 2450.74 9901 2452.96 9901 2456.04L9901 2761.7C9901 2769.57 9899.5 2775.09 9896.51 2778.25 9893.52 2781.42 9888.26 2783 9880.73 2783L9856.1 2783C9844.29 2783 9833.26 2780.18 9823 2774.53 9812.73 2768.89 9799.65 2756.05 9783.74 2736.04 9767.83 2716.02 9748.07 2685.56 9724.47 2644.67 9693.68 2591.63 9674.05 2558.01 9665.58 2543.81 9657.11 2529.61 9651.34 2520.72 9648.26 2517.12L9648.26 2769.4C9648.26 2774.53 9647.28 2778.08 9645.31 2780.05 9643.34 2782.02 9639.88 2783 9634.92 2783L9583.34 2783C9578.38 2783 9574.92 2782.02 9572.95 2780.05 9570.98 2778.08 9570 2774.53 9570 2769.4L9570 2444.24C9570 2433.8 9572.01 2426.32 9576.03 2421.78 9580.05 2417.25 9586.93 2414.98 9596.69 2414.98L9620.55 2414.98C9633.89 2414.98 9645.48 2417.55 9655.32 2422.68 9665.15 2427.81 9676.96 2439.28 9690.72 2457.07 9704.5 2474.86 9722.07 2502.58 9743.46 2540.22 9771.85 2589.84 9791.01 2622.82 9800.93 2639.15 9810.85 2655.49 9818.12 2666.66 9822.74 2672.65L9822.74 2456.04C9822.74 2452.79 9822.87 2450.57 9823.12 2449.37 9823.38 2448.17 9824.02 2446.63 9825.05 2444.75 9832.41 2433.46 9842.58 2421.57 9855.58 2409.08 9857.12 2407.88 9858.32 2407.07 9859.18 2406.64 9860.03 2406.21 9860.97 2406 9862 2406Z" fill="#06B6D4" fill-rule="evenodd"/><path d="M10323.6 2406C10325.6 2406 10327.7 2407.03 10330 2409.08 10343.5 2421.05 10354.3 2432.94 10362.3 2444.74 10363.5 2446.45 10364.2 2447.99 10364.5 2449.35 10364.7 2450.72 10364.9 2452.95 10364.9 2456.02L10364.9 2630.98C10364.9 2654.75 10367.4 2673.09 10372.6 2686 10377.7 2698.91 10385.2 2707.77 10395 2712.55 10404.8 2717.34 10417.8 2719.74 10433.9 2719.74 10450.3 2719.74 10463.4 2717.34 10473.2 2712.55 10483.1 2707.77 10490.5 2698.96 10495.6 2686.13 10500.6 2673.3 10503.1 2654.92 10503.1 2630.98L10503.1 2456.02C10503.1 2452.77 10503.3 2450.55 10503.5 2449.35 10503.8 2448.16 10504.5 2446.62 10505.7 2444.74 10513.4 2433.45 10524.2 2421.56 10538 2409.08 10539.4 2407.88 10540.5 2407.07 10541.5 2406.64 10542.4 2406.21 10543.5 2406 10544.7 2406 10546.7 2406 10548.9 2407.03 10551.1 2409.08 10564.6 2421.05 10575.4 2432.94 10583.4 2444.74 10584.6 2446.45 10585.4 2447.99 10585.6 2449.35 10585.9 2450.72 10586 2452.95 10586 2456.02L10586 2643.8C10586 2680.4 10579.7 2709.39 10567.1 2730.77 10554.6 2752.15 10537.2 2767.2 10514.9 2775.92 10492.7 2784.64 10465.7 2789 10433.9 2789 10399.8 2789 10371.8 2784.68 10349.9 2776.05 10327.9 2767.41 10311.1 2752.49 10299.4 2731.28 10287.8 2710.07 10282 2680.92 10282 2643.8L10282 2456.02C10282 2452.77 10282.1 2450.55 10282.4 2449.35 10282.6 2448.16 10283.4 2446.62 10284.6 2444.74 10292.3 2433.45 10303 2421.56 10316.9 2409.08 10318.3 2407.88 10319.4 2407.07 10320.4 2406.64 10321.3 2406.21 10322.4 2406 10323.6 2406Z" fill="#06B6D4" fill-rule="evenodd"/><path d="M10707.6 2406C10709.7 2406 10711.8 2407.03 10714 2409.08 10727.6 2421.06 10738.4 2432.95 10746.4 2444.75 10747.6 2446.46 10748.3 2448 10748.6 2449.37 10748.9 2450.74 10749 2452.96 10749 2456.04L10749 2683.68C10749 2695.49 10751.1 2703.78 10755.3 2708.58 10759.5 2713.37 10767.1 2715.76 10778.3 2715.76L10857.1 2715.5C10859.9 2715.5 10861.7 2715.59 10862.7 2715.76 10863.6 2715.93 10864.9 2716.53 10866.4 2717.56 10875.6 2723.89 10885.3 2732.7 10895.4 2743.99 10897.1 2746.22 10898 2748.01 10898 2749.38 10898 2750.92 10897.1 2752.63 10895.4 2754.51 10885.3 2765.81 10875.6 2774.62 10866.4 2780.95 10864.9 2781.8 10863.6 2782.36 10862.5 2782.62 10861.5 2782.87 10859.7 2783 10857.1 2783L10729.5 2783C10711.8 2783 10698.5 2780.78 10689.5 2776.33 10680.5 2771.88 10674.4 2764.86 10671 2755.28 10667.7 2745.7 10666 2732.01 10666 2714.22L10666 2456.04C10666 2452.79 10666.1 2450.57 10666.4 2449.37 10666.6 2448.17 10667.4 2446.63 10668.6 2444.75 10676.3 2433.46 10687.1 2421.57 10700.9 2409.08 10702.3 2407.88 10703.5 2407.07 10704.4 2406.64 10705.4 2406.21 10706.4 2406 10707.6 2406Z" fill="#06B6D4" fill-rule="evenodd"/><path d="M11292.6 2406C11294.7 2406 11296.8 2407.03 11299.1 2409.08 11312.6 2421.06 11323.4 2432.95 11331.4 2444.75 11332.6 2446.46 11333.4 2448 11333.6 2449.37 11333.9 2450.74 11334 2452.96 11334 2456.04L11334 2769.4C11334 2774.53 11332.9 2778.08 11330.8 2780.05 11328.6 2782.02 11325 2783 11319.9 2783L11265.1 2783C11260 2783 11256.4 2782.02 11254.2 2780.05 11252.1 2778.08 11251 2774.53 11251 2769.4L11251 2456.04C11251 2452.79 11251.1 2450.57 11251.4 2449.37 11251.6 2448.17 11252.4 2446.63 11253.6 2444.75 11261.3 2433.46 11272.1 2421.57 11285.9 2409.08 11287.3 2407.88 11288.5 2407.07 11289.4 2406.64 11290.4 2406.21 11291.4 2406 11292.6 2406Z" fill="#06B6D4" fill-rule="evenodd"/><path d="M11708 2406C11709.9 2406 11711.9 2407.03 11714.2 2409.08 11726.8 2421.06 11737 2432.95 11744.7 2444.75 11745.7 2446.46 11746.4 2448 11746.6 2449.37 11746.9 2450.74 11747 2452.96 11747 2456.04L11747 2761.7C11747 2769.57 11745.5 2775.09 11742.5 2778.25 11739.5 2781.42 11734.3 2783 11726.7 2783L11702.1 2783C11690.3 2783 11679.3 2780.18 11669 2774.53 11658.7 2768.89 11645.6 2756.05 11629.7 2736.04 11613.8 2716.02 11594.1 2685.56 11570.5 2644.67 11539.7 2591.63 11520 2558.01 11511.6 2543.81 11503.1 2529.61 11497.3 2520.72 11494.3 2517.12L11494.3 2769.4C11494.3 2774.53 11493.3 2778.08 11491.3 2780.05 11489.3 2782.02 11485.9 2783 11480.9 2783L11429.3 2783C11424.4 2783 11420.9 2782.02 11419 2780.05 11417 2778.08 11416 2774.53 11416 2769.4L11416 2444.24C11416 2433.8 11418 2426.32 11422 2421.78 11426 2417.25 11432.9 2414.98 11442.7 2414.98L11466.5 2414.98C11479.9 2414.98 11491.5 2417.55 11501.3 2422.68 11511.2 2427.81 11523 2439.28 11536.7 2457.07 11550.5 2474.86 11568.1 2502.58 11589.5 2540.22 11617.9 2589.84 11637 2622.82 11646.9 2639.15 11656.9 2655.49 11664.1 2666.66 11668.7 2672.65L11668.7 2456.04C11668.7 2452.79 11668.9 2450.57 11669.1 2449.37 11669.4 2448.17 11670 2446.63 11671 2444.75 11678.4 2433.46 11688.6 2421.57 11701.6 2409.08 11703.1 2407.88 11704.3 2407.07 11705.2 2406.64 11706 2406.21 11707 2406 11708 2406Z" fill="#06B6D4" fill-rule="evenodd"/><path d="M8986.62 2408C9019.45 2408 9044.41 2412.5 9061.5 2421.51 9078.6 2430.52 9090.74 2440.69 9097.92 2452.02 9099.12 2454.08 9099.97 2455.84 9100.49 2457.29 9101 2458.75 9101.34 2460.94 9101.51 2463.86 9101.85 2467.63 9102.02 2471.32 9102.02 2474.93 9102.02 2484.88 9101.34 2494.15 9099.97 2502.73 9099.63 2504.96 9099.2 2506.59 9098.69 2507.62 9098.18 2508.65 9097.49 2509.51 9096.64 2510.19 9094.59 2511.91 9090.83 2512.77 9085.35 2512.77 9079.88 2512.77 9073.77 2512.55 9067.02 2512.12 9060.26 2511.69 9055.09 2511.22 9051.5 2510.71 9047.57 2510.02 9044.66 2509.08 9042.78 2507.88 9040.9 2506.68 9038.94 2504.62 9036.88 2501.7 9032.27 2495.01 9026.03 2489.3 9018.16 2484.58 9010.3 2479.86 8998.84 2477.5 8983.8 2477.5 8958.32 2477.5 8938.02 2487.37 8922.89 2507.1 8907.76 2526.84 8900.19 2556.78 8900.19 2596.94 8900.19 2624.05 8903.91 2646.88 8911.35 2665.41 8918.79 2683.95 8928.92 2697.76 8941.74 2706.86 8954.56 2715.95 8969.09 2720.5 8985.34 2720.5 8996.79 2720.5 9006.15 2719.34 9013.42 2717.02 9020.69 2714.71 9026.2 2711.88 9029.96 2708.53 9033.72 2705.18 9037.57 2700.94 9041.5 2695.79 9044.41 2692.01 9046.76 2689.35 9048.55 2687.81 9050.35 2686.26 9052.79 2685.15 9055.86 2684.46 9060.48 2683.09 9070.31 2682.4 9085.35 2682.4 9091.34 2682.4 9096.21 2682.57 9099.97 2682.92 9103.56 2683.09 9106.04 2683.77 9107.41 2684.98 9108.78 2686.18 9109.63 2688.75 9109.97 2692.7 9110.66 2701.62 9111 2709.6 9111 2716.64 9111 2720.93 9110.83 2725.99 9110.49 2731.82 9110.15 2733.88 9109.8 2735.47 9109.46 2736.59 9109.12 2737.7 9108.26 2739.38 9106.9 2741.61 9103.31 2747.61 9097.15 2754.18 9088.43 2761.3 9079.71 2768.42 9066.46 2774.98 9048.68 2780.99 9030.9 2787 9008.76 2790 8982.26 2790 8929.94 2790 8888.65 2775.5 8858.39 2746.5 8828.13 2717.5 8813 2668.59 8813 2599.77 8813 2559.44 8820.01 2524.91 8834.03 2496.16 8848.05 2467.42 8868.09 2445.54 8894.17 2430.52 8920.24 2415.51 8951.06 2408 8986.62 2408Z" fill="#06B6D4" fill-rule="evenodd"/><path d="M9331.47 2409C9367.36 2409 9398.29 2416.11 9424.26 2430.32 9450.23 2444.54 9470.18 2465.69 9484.11 2493.78 9498.04 2521.87 9505 2556.21 9505 2596.8 9505 2639.79 9497.82 2675.67 9483.47 2704.45 9469.12 2733.22 9448.57 2754.67 9421.83 2768.8 9395.08 2782.93 9363 2790 9325.58 2790 9289.69 2790 9258.59 2783.06 9232.28 2769.19 9205.96 2755.32 9185.67 2734.51 9171.4 2706.76 9157.13 2679.01 9150 2644.84 9150 2604.25 9150 2561.09 9157.13 2524.95 9171.4 2495.84 9185.67 2466.72 9206.35 2444.97 9233.43 2430.58 9260.52 2416.19 9293.2 2409 9331.47 2409ZM9329.17 2478.37C9298.58 2478.37 9275.6 2488.56 9260.22 2508.94 9244.84 2529.32 9237.15 2559.64 9237.15 2599.89 9237.15 2637.22 9244.75 2666.68 9259.96 2688.26 9275.17 2709.84 9297.55 2720.63 9327.12 2720.63 9357.02 2720.63 9379.62 2709.93 9394.91 2688.52 9410.21 2667.11 9417.85 2638.08 9417.85 2601.43 9417.85 2559.98 9410.76 2529.11 9396.58 2508.81 9382.39 2488.51 9359.92 2478.37 9329.17 2478.37Z" fill="#06B6D4" fill-rule="evenodd"/><path d="M11988.3 2409C12023.5 2409 12050.1 2413.44 12068.1 2422.33 12086.1 2431.22 12098.7 2441.31 12105.9 2452.59 12107.1 2454.64 12108 2456.39 12108.5 2457.85 12109 2459.3 12109.3 2461.48 12109.5 2464.38 12109.8 2468.15 12110 2471.82 12110 2475.41 12110 2485.32 12109.3 2494.56 12108 2503.1 12107.6 2505.32 12107.2 2506.95 12106.7 2507.97 12106.2 2509 12105.5 2509.85 12104.6 2510.54 12102.6 2512.25 12098.8 2513.1 12093.3 2513.1 12087.8 2513.1 12081.4 2512.89 12074.1 2512.46 12066.8 2512.03 12061.5 2511.56 12058 2511.05 12054.1 2510.37 12051.2 2509.43 12049.4 2508.23 12047.6 2507.03 12045.6 2504.98 12043.4 2502.08 12039.8 2497.46 12036.3 2493.66 12033 2490.67 12029.6 2487.68 12024.2 2484.85 12016.9 2482.21 12009.5 2479.56 12000 2478.23 11988.3 2478.23 11969.4 2478.23 11953.2 2482.8 11939.6 2491.95 11925.9 2501.09 11915.5 2514.56 11908.3 2532.33 11901.1 2550.11 11897.5 2571.65 11897.5 2596.95 11897.5 2637.12 11905.8 2667.63 11922.4 2688.49 11939.1 2709.34 11963.2 2719.77 11994.7 2719.77 12008.3 2719.77 12019 2718.83 12026.8 2716.95 12034.6 2715.07 12040.3 2713.1 12043.9 2711.05L12043.9 2631.31C12043.9 2628.06 12044 2625.84 12044.3 2624.64 12044.5 2623.44 12045.3 2621.91 12046.5 2620.03 12054.2 2608.74 12065 2596.86 12078.9 2584.38 12080.3 2583.19 12081.4 2582.38 12082.4 2581.95 12083.3 2581.52 12084.4 2581.31 12085.6 2581.31 12087.6 2581.31 12089.8 2582.33 12092 2584.38 12105.6 2596.35 12116.4 2608.23 12124.4 2620.03 12125.6 2621.74 12126.4 2623.27 12126.6 2624.64 12126.9 2626.01 12127 2628.23 12127 2631.31L12127 2757.72C12116.7 2765.24 12100.7 2772.33 12078.9 2779 12057.1 2785.67 12028 2789 11991.7 2789 11932.6 2789 11887.6 2774.09 11856.6 2744.26 11825.5 2714.43 11810 2666.26 11810 2599.77 11810 2559.43 11817 2524.98 11831.1 2496.44 11845.2 2467.89 11865.6 2446.18 11892.3 2431.31 11919.1 2416.44 11951.1 2409 11988.3 2409Z" fill="#06B6D4" fill-rule="evenodd"/><path d="M10104.1 2409C10122.9 2409 10139.2 2411.27 10153 2415.8 10166.8 2420.34 10177.7 2425.52 10185.6 2431.34 10193.4 2437.16 10198.9 2442.55 10202 2447.51 10203.4 2449.57 10204.2 2451.15 10204.6 2452.26 10204.9 2453.38 10205.3 2454.96 10205.6 2457.01 10205.9 2462.49 10206.1 2466.77 10206.1 2469.85 10206.1 2478.24 10205.5 2487.23 10204.3 2496.81 10203.8 2499.55 10202.9 2501.43 10201.5 2502.46 10200.3 2503.32 10198.4 2503.74 10195.8 2503.74 10179.2 2504.09 10166.4 2503.23 10157.3 2501.18 10154 2500.49 10151.8 2499.76 10150.5 2498.99 10149.2 2498.22 10147.5 2496.73 10145.5 2494.5 10140.8 2489.36 10135.6 2485.09 10129.8 2481.66 10124 2478.24 10115.4 2476.53 10104.1 2476.53 10087.3 2476.53 10074.8 2480.34 10066.7 2487.95 10058.5 2495.57 10054.5 2504.94 10054.5 2516.07 10054.5 2523.94 10056.8 2530.62 10061.5 2536.09 10066.3 2541.57 10073.4 2546.54 10082.9 2550.99 10092.4 2555.44 10106.1 2560.83 10123.9 2567.16 10146.3 2575.04 10164.3 2583.04 10177.7 2591.17 10191.2 2599.3 10201.6 2609.83 10208.9 2622.75 10216.3 2635.67 10220 2652.23 10220 2672.43 10220 2697.94 10214.1 2719.42 10202.3 2736.88 10190.4 2754.34 10174.1 2767.39 10153.3 2776.03 10132.5 2784.68 10108.6 2789 10081.7 2789 10052.2 2789 10028.9 2785.36 10011.8 2778.09 9994.67 2770.81 9981.82 2761.7 9973.25 2750.74 9971.37 2748 9969.91 2745.69 9968.88 2743.81 9967.85 2741.93 9967.08 2739.79 9966.57 2737.39 9964.86 2728.32 9964 2720.02 9964 2712.49 9964 2709.06 9964.08 2706.41 9964.26 2704.53 9964.26 2703.16 9964.38 2701.96 9964.64 2700.93 9964.9 2699.91 9965.37 2698.96 9966.06 2698.11 9967.25 2696.74 9969.23 2695.71 9971.97 2695.03 9976.59 2694 9982.93 2692.97 9990.99 2691.95 9999.04 2690.92 10004.9 2690.41 10008.5 2690.41 10011.9 2690.41 10014.7 2691.05 10016.9 2692.33 10019.2 2693.61 10021.9 2695.97 10025.2 2699.39 10030.7 2705.21 10037.6 2710.35 10046.1 2714.8 10054.6 2719.25 10066.5 2721.47 10081.7 2721.47 10098.3 2721.47 10111 2718.01 10119.6 2711.07 10128.3 2704.14 10132.6 2694.34 10132.6 2681.68 10132.6 2674.66 10130.5 2668.24 10126.3 2662.42 10122.1 2656.6 10114.7 2650.78 10104 2644.96 10093.2 2639.14 10078.3 2632.98 10059.1 2626.47 10036.8 2619.11 10019 2610.68 10005.8 2601.18 9992.49 2591.68 9982.72 2580.26 9976.46 2566.91 9970.21 2553.55 9967.08 2537.21 9967.08 2517.86 9967.08 2494.59 9972.82 2474.77 9984.3 2458.43 9995.79 2442.08 10011.8 2429.75 10032.4 2421.45 10052.9 2413.15 10076.8 2409 10104.1 2409Z" fill="#06B6D4" fill-rule="evenodd"/><path d="M10933.8 2415 11170.2 2415C11172.9 2415 11174.7 2415.09 11175.7 2415.26 11176.6 2415.43 11177.9 2416.03 11179.4 2417.05 11188.7 2423.38 11198.3 2432.19 11208.4 2443.49 11210.1 2445.71 11211 2447.51 11211 2448.87 11211 2450.41 11210.1 2452.12 11208.4 2454.01 11198.3 2465.3 11188.7 2474.11 11179.4 2480.44 11177.9 2481.29 11176.6 2481.85 11175.6 2482.11 11174.5 2482.36 11172.7 2482.49 11170.2 2482.49L11093.4 2482.49 11093.4 2769.4C11093.4 2774.53 11092.3 2778.08 11090.1 2780.05 11088 2782.02 11084.4 2783 11079.2 2783L11024.5 2783C11019.4 2783 11015.7 2782.02 11013.6 2780.05 11011.5 2778.08 11010.4 2774.53 11010.4 2769.4L11010.4 2482.49 10933.8 2482.49C10931.1 2482.49 10929.3 2482.41 10928.3 2482.24 10927.4 2482.06 10926.1 2481.47 10924.6 2480.44 10915.3 2474.11 10905.7 2465.3 10895.6 2454.01 10893.9 2451.78 10893 2449.99 10893 2448.62 10893 2447.08 10893.9 2445.37 10895.6 2443.49 10905.7 2432.19 10915.3 2423.38 10924.6 2417.05 10926.1 2416.2 10927.4 2415.64 10928.4 2415.38 10929.5 2415.13 10931.3 2415 10933.8 2415Z" fill="#06B6D4" fill-rule="evenodd"/></g></svg>