<svg width="656" height="135" xmlns="http://www.w3.org/2000/svg" xmlns:xlink="http://www.w3.org/1999/xlink" xml:space="preserve" overflow="hidden"><defs><clipPath id="clip0"><rect x="320" y="581" width="656" height="135"/></clipPath></defs><g clip-path="url(#clip0)" transform="translate(-320 -581)"><path d="M454 648.5C454 685.227 424.228 715 387.5 715 350.773 715 321 685.227 321 648.5 321 611.773 350.773 582 387.5 582 424.228 582 454 611.773 454 648.5Z" fill="#23509E" fill-rule="evenodd"/><path d="M483.517 611.932 465 611.932 465 600.386 514.562 600.386 514.562 611.932 495.967 611.932 495.967 666.614 483.517 666.614 483.517 611.932ZM532.942 600.293 532.942 639.998C532.942 646.186 533.912 650.512 535.84 652.959 537.782 655.407 541.121 656.639 545.857 656.639 550.579 656.639 553.904 655.422 555.832 652.99 557.762 650.542 558.72 646.217 558.72 639.998L558.72 600.293 570.771 600.293 570.771 640.35C570.771 645.046 570.504 648.801 569.973 651.589 569.441 654.391 568.59 656.608 567.419 658.24 565.131 661.366 562.258 663.658 558.785 665.136 555.315 666.614 551.018 667.353 545.871 667.353 540.723 667.353 536.413 666.614 532.914 665.136 529.416 663.658 526.53 661.366 524.242 658.24 523.096 656.639 522.274 654.483 521.754 651.773 521.235 649.063 520.97 645.262 520.97 640.35L520.97 600.293 532.942 600.293ZM595.201 612.209 595.201 627.543 612.826 627.543C615.553 627.543 617.56 626.912 618.826 625.665 620.102 624.418 620.74 622.493 620.74 619.875 620.74 617.229 620.102 615.289 618.826 614.057 617.56 612.825 615.553 612.209 612.826 612.209L595.201 612.209ZM613.025 654.884C615.779 654.884 617.775 654.252 619.024 653.005 620.274 651.758 620.899 649.802 620.899 647.125 620.899 644.415 620.274 642.429 619.011 641.166 617.747 639.904 615.752 639.272 613.025 639.272L595.201 639.272 595.201 654.884 613.025 654.884ZM614.701 666.614 583.15 666.614 583.15 600.293 612.587 600.293C616.311 600.293 619.329 600.54 621.645 601.017 623.973 601.495 625.848 602.265 627.284 603.31 629.387 604.851 630.997 606.836 632.101 609.268 633.204 611.701 633.749 614.473 633.749 617.566 633.749 621.277 633.057 624.402 631.688 626.973 630.304 629.543 628.15 631.714 625.222 633.454 628.189 634.901 630.371 636.842 631.782 639.288 633.204 641.751 633.909 644.815 633.909 648.526 633.909 654.714 632.353 659.287 629.226 662.211 626.113 665.152 621.271 666.614 614.701 666.614ZM640.448 632.776C640.448 621.385 642.803 612.902 647.525 607.344 652.235 601.787 659.403 599 669.049 599 678.756 599 685.94 601.818 690.596 607.436 695.266 613.056 697.594 621.723 697.594 633.454 697.594 645.185 695.266 653.867 690.596 659.516 685.94 665.167 678.756 668 669.049 668 659.23 668 652.009 665.152 647.379 659.47 642.763 653.79 640.448 644.892 640.448 632.776ZM669.049 610.362C663.874 610.362 660.015 612.224 657.447 615.951 654.894 619.677 653.618 625.326 653.618 632.869 653.618 641.045 654.854 647.032 657.341 650.834 659.816 654.637 663.712 656.547 669.049 656.547 674.289 656.547 678.172 654.653 680.713 650.882 683.241 647.11 684.506 641.305 684.506 633.454 684.506 625.572 683.241 619.753 680.713 615.997 678.172 612.24 674.289 610.362 669.049 610.362ZM706.541 600.293 732.703 600.293C737.122 600.293 740.647 600.555 743.267 601.079 745.901 601.602 747.988 602.449 749.542 603.588 752.139 605.513 754.106 608.037 755.45 611.147 756.792 614.257 757.459 617.845 757.459 621.908 757.459 625.881 756.912 629.283 755.822 632.13 754.732 634.963 753.071 637.319 750.836 639.18 748.958 640.72 746.802 641.813 744.385 642.46 741.95 643.107 738.226 643.43 733.209 643.43L718.591 643.43 718.591 666.614 706.541 666.614 706.541 600.293ZM732.545 612.117 718.591 612.117 718.591 631.699 733.291 631.699C736.933 631.699 739.636 630.898 741.403 629.283 743.174 627.682 744.051 625.218 744.051 621.908 744.051 618.351 743.188 615.843 741.458 614.349 739.729 612.856 736.761 612.117 732.545 612.117ZM789.246 666.614C783.885 666.614 779.907 666.091 777.314 665.059 774.707 664.027 772.379 662.226 770.33 659.67 768.428 657.378 767.098 654.791 766.313 651.912 765.526 649.032 765.141 644.969 765.141 639.736L765.141 600.293 777.193 600.293 777.193 639.288C777.193 643.168 777.338 645.893 777.644 647.479 777.94 649.063 778.459 650.326 779.188 651.296 780.319 652.851 781.729 653.96 783.394 654.622 785.054 655.284 787.355 655.622 790.295 655.622L804.49 655.622 804.49 666.614 789.246 666.614ZM835.435 613.472 827.058 638.997 844.125 638.997 835.435 613.472ZM829.517 600.293 842.288 600.293 866.721 666.614 853.313 666.614 848.059 650.819 823.159 650.819 818.052 666.614 805.267 666.614 829.517 600.293ZM919.897 612.117 890.142 612.117C886.951 612.117 884.609 612.81 883.106 614.196 881.614 615.581 880.871 617.766 880.871 620.784 880.871 623.185 881.511 625.003 882.773 626.204 884.049 627.405 885.95 628.003 888.464 628.003L904.402 628.003C910.998 628.003 915.705 629.451 918.501 632.33 921.293 635.225 922.689 640.027 922.689 646.771 922.689 653.59 921.083 658.61 917.848 661.811 914.629 665.013 909.564 666.614 902.645 666.614L870.572 666.614 870.572 654.791 900.73 654.791C904.162 654.791 906.569 654.206 907.978 653.051 909.375 651.896 910.083 649.987 910.083 647.308 910.083 644.538 909.443 642.567 908.151 641.397 906.861 640.227 904.667 639.642 901.555 639.642L887.336 639.642C880.723 639.642 875.895 638.119 872.849 635.055 869.791 632.007 868.261 627.189 868.261 620.599 868.261 613.564 869.87 608.421 873.076 605.173 876.294 601.925 881.39 600.293 888.385 600.293L919.897 600.293 919.897 612.117ZM944.952 611.932 926.438 611.932 926.438 600.386 976 600.386 976 611.932 957.403 611.932 957.403 666.614 944.952 666.614 944.952 611.932Z" fill="#FFFFFF" fill-rule="evenodd"/><path d="M387.5 581.966C350.813 581.966 320.966 611.813 320.966 648.499 320.966 685.188 350.813 715.035 387.5 715.035 424.187 715.035 454.034 685.188 454.034 648.499 454.034 611.813 424.187 581.966 387.5 581.966ZM387.5 716C350.279 716 320 685.72 320 648.499 320 611.281 350.279 581 387.5 581 424.719 581 455 611.281 455 648.499 455 685.72 424.719 716 387.5 716Z" fill="#FFFFFF" fill-rule="evenodd"/><path d="M387.499 710C353.533 710 326 682.465 326 648.499 326 614.535 353.533 587 387.499 587 421.465 587 449 614.535 449 648.499 449 682.465 421.465 710 387.499 710Z" fill="#F3F020" fill-rule="evenodd"/><path d="M416.877 642.33C416.874 642.333 416.869 642.337 416.865 642.34L416.877 642.33 417.082 642.154 416.848 642.352C416.74 642.426 416.623 642.493 416.503 642.543L416.491 642.55C416.377 642.598 416.253 642.634 416.124 642.661L416.107 642.668C415.726 642.739 415.069 643.028 414.251 643.458 413.792 643.699 413.278 643.988 412.733 644.312L417.697 644.292 418.662 644.292 419.095 645.105 419.14 645.188 419.145 645.195 425.835 657.813 425.841 657.831 425.88 657.907 426.257 658.641 425.902 659.389 425.867 659.463 425.88 659.446 418.236 676.132 418.223 676.151 418.18 676.244 417.761 677.126 412.265 677.126 412.276 692.227 412.276 692.265 412.27 692.425 412.232 694 410.761 693.99 410.61 693.988 371.522 693.825 371.426 693.823 370.483 693.818 370.075 692.905 370.034 692.812 370.034 692.819C369.7 692.079 369.45 691.309 369.279 690.531L369.279 690.525C369.104 689.721 369.016 688.918 369.016 688.143 369.016 687.455 369.088 686.747 369.231 686.033L365.337 686 364.404 686 363.966 685.23 363.921 685.152 363.928 685.152C363.436 684.301 363.025 683.463 362.724 682.628 362.401 681.73 362.2 680.834 362.154 679.928 362.107 679.009 362.22 678.086 362.527 677.149L362.532 677.144C362.569 677.028 362.612 676.915 362.656 676.8L355.324 676.8 354.911 675.899 347.345 659.379 347 658.626 347.387 657.898 353.991 645.439 354.425 644.619 369.338 644.619 369.338 629.944C369.338 629.797 369.35 629.65 369.367 629.507 369.157 629.363 368.959 629.194 368.783 629.007 368.15 628.333 367.756 627.403 367.756 626.379L367.756 606.721C367.756 605.696 368.15 604.764 368.783 604.092 369.415 603.419 370.288 603 371.251 603L401.696 603C402.659 603 403.534 603.419 404.165 604.092 404.797 604.764 405.191 605.696 405.191 606.721L405.191 626.379C405.191 627.403 404.797 628.333 404.165 629.007 403.902 629.288 403.592 629.523 403.255 629.703 403.255 629.71 403.257 629.717 403.257 629.724 403.257 629.797 403.25 629.893 403.238 630.005 403.238 630.008 403.238 630.015 403.238 630.015L403.238 630.005 403.238 629.993C403.226 630.135 403.214 630.226 403.204 630.285L407.416 627.392 407.41 627.399C407.562 627.296 407.723 627.21 407.887 627.15 408.057 626.882 408.278 626.646 408.548 626.46L416.374 621.074 416.369 621.082C416.905 620.713 417.529 620.603 418.101 620.724 418.684 620.847 419.229 621.21 419.588 621.778L419.588 621.771 426.607 632.833C426.97 633.405 427.073 634.079 426.951 634.706 426.829 635.329 426.48 635.905 425.937 636.278L418.112 641.664 418.117 641.657C417.833 641.853 417.522 641.975 417.207 642.031 417.109 642.141 416.999 642.242 416.877 642.33Z" fill="#FFFFFF" fill-rule="evenodd"/><path d="M371.399 693.095 398.766 693.211 398.766 671.971 398.371 671.556C398.42 671.937 398.438 672.317 398.422 672.689 398.402 673.18 398.317 673.683 398.175 674.184L398.182 674.175C397.904 675.151 397.395 675.998 396.652 676.687 396.481 676.844 396.297 676.994 396.103 677.133 396.308 677.566 396.492 678.004 396.647 678.439 397.021 679.497 397.228 680.556 397.23 681.591 397.232 682.682 397.026 683.759 396.593 684.813 396.177 685.826 395.559 686.8 394.723 687.729L394.702 687.758 394.147 688.353 393.359 688.353 371.404 688.224C371.339 688.439 371.283 688.651 371.236 688.864 371.106 689.448 371.039 690.036 371.039 690.621 371.039 691.218 371.102 691.819 371.225 692.404 371.274 692.635 371.331 692.865 371.399 693.095ZM421.31 620.605 421.31 620.598 428.593 632.147C428.969 632.742 429.077 633.447 428.949 634.102 428.823 634.751 428.462 635.353 427.896 635.742L419.777 641.363 419.785 641.358C419.488 641.562 419.166 641.691 418.841 641.747 418.739 641.862 418.623 641.968 418.497 642.059L418.71 641.878 418.466 642.083C418.355 642.16 418.233 642.229 418.109 642.282L418.096 642.289C417.979 642.339 417.85 642.378 417.715 642.406L417.698 642.412C417.301 642.486 416.621 642.788 415.773 643.237 415.297 643.489 414.764 643.791 414.196 644.13L419.348 644.108 420.348 644.108 420.798 644.957 420.845 645.044 420.85 645.051 427.791 658.222 427.798 658.241 427.838 658.32 428.228 659.088 427.862 659.868 427.825 659.947 427.837 659.928 419.907 677.347 419.895 677.368 419.849 677.463 419.415 678.384 413.713 678.384 413.721 694.149 413.721 694.188 413.718 694.356 413.68 696 412.151 695.988 411.996 695.986 371.443 695.817 371.343 695.815 370.363 695.81 369.941 694.857 369.898 694.759 369.898 694.766C369.553 693.995 369.29 693.19 369.113 692.378L369.113 692.371C368.933 691.533 368.841 690.695 368.842 689.885 368.842 689.167 368.916 688.428 369.065 687.682L365.024 687.648 364.057 687.648 363.602 686.844 363.556 686.762 363.561 686.762C363.053 685.874 362.626 685 362.314 684.129 361.979 683.19 361.771 682.256 361.724 681.31 361.674 680.351 361.791 679.387 362.11 678.408L362.115 678.401C362.154 678.283 362.197 678.163 362.243 678.043L354.637 678.043 354.209 677.103 346.358 659.858 346 659.07 346.4 658.311 353.254 645.305 353.705 644.449 369.176 644.449 369.176 629.13C369.176 628.976 369.188 628.823 369.207 628.674 368.987 628.521 368.783 628.347 368.599 628.151 367.943 627.448 367.534 626.476 367.534 625.407L367.534 604.886C367.534 603.816 367.943 602.844 368.599 602.142 369.255 601.439 370.162 601 371.16 601L402.746 601C403.746 601 404.654 601.439 405.308 602.142 405.964 602.844 406.372 603.816 406.372 604.886L406.372 625.407C406.372 626.476 405.964 627.448 405.308 628.151 405.035 628.444 404.713 628.691 404.364 628.878 404.364 628.885 404.366 628.892 404.366 628.9 404.366 628.976 404.359 629.075 404.348 629.193L404.348 629.18C404.335 629.329 404.322 629.425 404.312 629.485L408.682 626.466 408.675 626.473C408.832 626.363 409 626.277 409.171 626.212 409.346 625.933 409.576 625.688 409.857 625.492L417.976 619.871 417.971 619.878C418.526 619.492 419.173 619.379 419.767 619.504 420.372 619.633 420.937 620.012 421.31 620.605ZM411.485 627.469 418.476 638.749 418.657 639.036 426.345 633.711 419.088 622.202 411.485 627.469ZM401.43 650.886C401.408 650.795 401.385 650.707 401.365 650.611L401.365 650.604C401.273 650.163 401.188 649.661 401.116 649.117 401.04 648.536 400.982 648.01 400.939 647.554 400.939 647.545 400.938 647.537 400.938 647.53 400.849 646.961 400.772 646.393 400.713 645.824 400.497 643.837 400.437 640.904 400.49 638.982 400.543 637.09 400.709 635.19 400.95 633.332 401.159 631.712 401.42 630.154 401.708 628.669L371.745 628.669 371.745 650.982 401.43 650.886ZM401.168 693.255 410.962 693.297 410.943 666.653 405.822 654.869 405.03 653.144 402.782 653.151C402.61 653.206 402.428 653.25 402.23 653.283 402.007 653.322 401.801 653.343 401.614 653.343L383.053 653.343 383.053 667.56 388.932 667.56 391.562 664.752 391.678 664.626 392.819 663.409 393.97 664.613 394.088 664.736 400.616 670.724 400.668 670.778 401.168 671.3 401.168 693.255ZM402.726 653.151 402.721 653.151 402.392 653.207 402.726 653.151ZM371.711 653.129 364.595 653.153C364.372 653.468 364.188 653.782 364.044 654.094 363.844 654.533 363.726 654.98 363.707 655.435 363.689 655.904 363.774 656.396 363.977 656.915 364.132 657.312 364.354 657.726 364.646 658.16L381.149 658.186 381.149 653.223 372.623 653.223C372.315 653.223 372.01 653.194 371.711 653.129ZM364.665 660.447C364.397 660.927 364.174 661.404 364.004 661.879 363.76 662.564 363.622 663.252 363.609 663.939 363.593 664.621 363.699 665.316 363.93 666.019 364.093 666.507 364.319 667.011 364.612 667.529L381.149 667.56 381.149 660.476 364.665 660.447ZM364.431 670.092C364.239 670.39 364.101 670.685 364.013 670.98L364.013 670.989C363.886 671.407 363.852 671.866 363.893 672.355L363.893 672.344C363.946 672.953 364.111 673.617 364.366 674.316 364.556 674.834 364.791 675.367 365.061 675.902L393.457 675.902C393.8 675.749 394.067 675.555 394.262 675.329 394.443 675.109 394.571 674.841 394.639 674.534L394.635 674.54C394.677 674.348 394.702 674.141 394.709 673.925 394.716 673.69 394.704 673.46 394.672 673.245 394.639 673.011 394.585 672.778 394.51 672.559 394.437 672.339 394.34 672.125 394.224 671.917 393.923 671.393 393.469 670.92 392.885 670.61 392.335 670.318 391.654 670.171 390.85 670.246L390.833 670.185 390.717 670.217 380.355 670.217 380.355 670.126 364.431 670.092ZM365.075 678.557C364.854 679.02 364.683 679.469 364.562 679.915 364.378 680.59 364.31 681.267 364.338 681.941 364.338 681.944 364.336 681.946 364.338 681.95L364.338 681.941C364.338 681.944 364.338 681.946 364.338 681.95 364.366 682.664 364.499 683.392 364.714 684.132 364.857 684.626 365.037 685.137 365.252 685.666L369.517 685.711 369.517 685.708 371.174 685.72 393.805 685.874C394.062 685.433 394.263 684.994 394.408 684.552L394.415 684.543C394.616 683.935 394.713 683.303 394.711 682.653 394.711 682.009 394.577 681.259 394.348 680.467 394.164 679.838 393.923 679.192 393.64 678.557L365.075 678.557ZM403.38 632.819C403.331 633.205 403.286 633.596 403.246 633.99 403.273 634.554 403.298 635.321 403.257 636.248 403.138 639.006 403.09 644.164 403.32 646.93 403.329 647.031 403.337 647.13 403.346 647.226L403.346 647.23C403.411 647.623 403.484 648.015 403.564 648.406 404.141 647.948 404.792 647.456 405.486 646.94 407.173 645.69 409.082 644.353 410.858 643.199 412.4 642.198 413.927 641.276 415.254 640.577 415.7 640.343 416.123 640.133 416.521 639.953L409.491 628.669 403.38 632.819ZM371.881 626.109 401.619 626.109C401.726 626.109 401.851 626.118 401.997 626.133L403.543 626.133C403.595 626.133 403.644 626.109 403.68 626.072 403.715 626.034 403.739 625.979 403.739 625.924L403.739 604.368C403.739 604.314 403.715 604.26 403.68 604.221 403.644 604.183 403.595 604.158 403.543 604.158L370.365 604.158C370.312 604.158 370.263 604.183 370.227 604.221 370.191 604.26 370.167 604.314 370.167 604.368L370.167 625.924C370.167 625.979 370.191 626.034 370.227 626.072 370.263 626.109 370.312 626.133 370.365 626.133L371.468 626.133C371.605 626.116 371.743 626.109 371.881 626.109ZM404.348 629.193C404.348 629.193 404.348 629.202 404.348 629.207L404.348 629.193ZM418.497 642.059C418.493 642.063 418.49 642.066 418.485 642.069L418.497 642.059Z" fill="#23509E" fill-rule="evenodd"/><path d="M535.048 683.123 530.887 683.123 530.887 696.693C530.887 697.475 530.712 698.055 530.36 698.433 530.009 698.812 529.556 699 528.999 699 528.434 699 527.973 698.809 527.619 698.427 527.264 698.044 527.087 697.468 527.087 696.693L527.087 683.123 522.924 683.123C522.274 683.123 521.791 682.981 521.474 682.697 521.156 682.412 521 682.036 521 681.568 521 681.083 521.163 680.702 521.494 680.421 521.822 680.142 522.3 680 522.924 680L535.048 680C535.707 680 536.197 680.145 536.517 680.435 536.838 680.723 537 681.101 537 681.568 537 682.036 536.837 682.412 536.512 682.697 536.186 682.981 535.698 683.123 535.048 683.123Z" fill="#FFFFFF" fill-rule="evenodd"/><path d="M539 690.675 539 681.373C539 680.582 539.176 679.987 539.525 679.593 539.877 679.196 540.337 679 540.908 679 541.504 679 541.978 679.196 542.329 679.593 542.679 679.987 542.855 680.582 542.855 681.373L542.855 690.885C542.855 691.968 542.973 692.871 543.212 693.597 543.449 694.322 543.87 694.886 544.477 695.286 545.082 695.686 545.929 695.885 547.02 695.885 548.526 695.885 549.589 695.479 550.213 694.665 550.834 693.852 551.146 692.62 551.146 690.965L551.146 681.373C551.146 680.573 551.32 679.977 551.666 679.586 552.012 679.194 552.474 679 553.054 679 553.634 679 554.103 679.194 554.462 679.586 554.821 679.977 555.001 680.573 555.001 681.373L555.001 690.675C555.001 692.187 554.856 693.45 554.566 694.461 554.276 695.472 553.728 696.36 552.924 697.126 552.231 697.776 551.427 698.251 550.51 698.551 549.594 698.85 548.521 699 547.293 699 545.831 699 544.571 698.839 543.517 698.518 542.461 698.198 541.6 697.7 540.934 697.028 540.267 696.355 539.779 695.492 539.467 694.441 539.157 693.391 539 692.135 539 690.675Z" fill="#FFFFFF" fill-rule="evenodd"/><path d="M566.463 690.008 562.657 690.008 562.657 695.262 566.587 695.262C569.058 695.262 570.293 694.375 570.293 692.598 570.293 691.69 569.973 691.03 569.333 690.621 568.693 690.212 567.736 690.008 566.463 690.008ZM562.657 682.74 562.657 687.393 566.008 687.393C566.919 687.393 567.622 687.306 568.119 687.133 568.616 686.962 568.996 686.636 569.258 686.152 569.463 685.809 569.566 685.423 569.566 684.997 569.566 684.09 569.243 683.486 568.594 683.187 567.946 682.888 566.955 682.74 565.626 682.74L562.657 682.74ZM566.734 698 561.216 698C560.421 698 559.852 697.823 559.51 697.467 559.17 697.111 559 696.544 559 695.766L559 682.236C559 681.442 559.173 680.871 559.524 680.522 559.872 680.174 560.435 680 561.216 680L567.067 680C567.929 680 568.676 680.053 569.308 680.16 569.94 680.266 570.507 680.472 571.007 680.775 571.434 681.027 571.812 681.35 572.141 681.739 572.469 682.128 572.72 682.557 572.891 683.027 573.064 683.498 573.15 683.995 573.15 684.518 573.15 686.32 572.248 687.639 570.44 688.473 572.814 689.226 574 690.691 574 692.869 574 693.876 573.742 694.782 573.225 695.588 572.708 696.394 572.009 696.99 571.131 697.375 570.58 697.605 569.948 697.766 569.234 697.859 568.519 697.954 567.686 698 566.734 698Z" fill="#FFFFFF" fill-rule="evenodd"/><path d="M589.824 682.811 580.944 682.811 580.944 687.231 589.121 687.231C589.723 687.231 590.171 687.356 590.467 687.607 590.764 687.856 590.913 688.185 590.913 688.595 590.913 689.004 590.767 689.338 590.474 689.595 590.181 689.853 589.73 689.981 589.121 689.981L580.944 689.981 580.944 695.101 590.129 695.101C590.748 695.101 591.215 695.236 591.529 695.5 591.844 695.768 592 696.122 592 696.564 592 696.99 591.844 697.336 591.529 697.601 591.215 697.867 590.748 698 590.129 698L579.416 698C578.558 698 577.94 697.824 577.565 697.472 577.187 697.121 577 696.551 577 695.766L577 682.234C577 681.71 577.085 681.281 577.252 680.951 577.421 680.62 577.683 680.379 578.043 680.226 578.401 680.075 578.859 680 579.416 680L589.824 680C590.453 680 590.918 680.128 591.224 680.385 591.529 680.643 591.682 680.981 591.682 681.4 591.682 681.825 591.529 682.166 591.224 682.425 590.918 682.683 590.453 682.811 589.824 682.811Z" fill="#FFFFFF" fill-rule="evenodd"/><path d="M602.02 682.842 598.651 682.842 598.651 687.978 601.922 687.978C602.799 687.978 603.537 687.899 604.136 687.742 604.733 687.585 605.19 687.318 605.506 686.938 605.82 686.56 605.979 686.04 605.979 685.378 605.979 684.859 605.852 684.403 605.597 684.008 605.344 683.613 604.991 683.318 604.54 683.123 604.114 682.935 603.275 682.842 602.02 682.842ZM599.929 690.692 598.651 690.692 598.651 696.695C598.651 697.485 598.483 698.067 598.146 698.441 597.81 698.814 597.372 699 596.831 699 596.248 699 595.799 698.805 595.479 698.415 595.158 698.024 595 697.451 595 696.695L595 682.319C595 681.503 595.175 680.913 595.528 680.549 595.88 680.181 596.45 680 597.237 680L603.175 680C603.996 680 604.695 680.036 605.278 680.109 605.86 680.181 606.385 680.326 606.851 680.549 607.417 680.794 607.918 681.148 608.353 681.604 608.787 682.063 609.116 682.597 609.341 683.204 609.568 683.812 609.681 684.457 609.681 685.135 609.681 686.529 609.301 687.642 608.544 688.475 607.785 689.307 606.634 689.897 605.093 690.245 605.74 690.603 606.36 691.129 606.951 691.826 607.54 692.523 608.068 693.265 608.531 694.05 608.994 694.837 609.354 695.546 609.613 696.179 609.87 696.811 610.001 697.247 610.001 697.485 610.001 697.73 609.924 697.975 609.772 698.217 609.621 698.46 609.415 698.65 609.151 698.791 608.889 698.931 608.585 699 608.241 699 607.831 699 607.487 698.902 607.209 698.702 606.929 698.502 606.691 698.25 606.49 697.944 606.288 697.637 606.017 697.189 605.672 696.593L604.209 694.069C603.685 693.143 603.215 692.439 602.801 691.954 602.386 691.469 601.966 691.138 601.54 690.96 601.114 690.782 600.577 690.692 599.929 690.692Z" fill="#FFFFFF" fill-rule="evenodd"/><path d="M613.388 696.681 613.388 681.88C613.388 681.112 613.554 680.534 613.885 680.151 614.216 679.766 614.642 679.575 615.168 679.575 615.709 679.575 616.147 679.764 616.481 680.144 616.816 680.524 616.984 681.103 616.984 681.88L616.984 696.681C616.984 697.458 616.816 698.039 616.481 698.424 616.147 698.808 615.709 699 615.168 699 614.652 699 614.226 698.806 613.89 698.417 613.556 698.029 613.388 697.449 613.388 696.681ZM615.749 675 617.382 675C617.795 675 618 675.064 618 675.191 618 675.26 617.774 675.538 617.322 676.024 616.869 676.511 616.414 676.978 615.955 677.42 615.494 677.866 615.175 678.135 614.998 678.229 614.539 678.477 614.046 678.6 613.521 678.6 613.175 678.6 613 678.494 613 678.28 613 678.135 613.105 677.884 613.316 677.524L613.861 676.447C614.175 675.824 614.45 675.427 614.683 675.255 614.918 675.085 615.273 675 615.749 675Z" fill="#FFFFFF" fill-rule="evenodd"/><path d="M625.687 691.111 631.162 691.111 628.4 683.129 625.687 691.111ZM633.037 696.48 632.162 694.053 624.713 694.053 623.838 696.534C623.496 697.5 623.205 698.154 622.963 698.493 622.721 698.831 622.325 699 621.775 699 621.308 699 620.895 698.82 620.538 698.459 620.179 698.098 620 697.69 620 697.232 620 696.969 620.042 696.696 620.125 696.414 620.208 696.134 620.347 695.741 620.538 695.24L625.225 682.681C625.357 682.32 625.518 681.888 625.706 681.382 625.894 680.875 626.093 680.455 626.305 680.121 626.519 679.788 626.798 679.518 627.143 679.311 627.49 679.103 627.916 679 628.424 679 628.942 679 629.373 679.103 629.718 679.311 630.064 679.518 630.343 679.784 630.556 680.109 630.769 680.434 630.947 680.784 631.092 681.157 631.24 681.531 631.424 682.031 631.649 682.654L636.436 695.135C636.812 696.085 637 696.775 637 697.205 637 697.653 636.822 698.066 636.467 698.439 636.114 698.813 635.687 699 635.186 699 634.895 699 634.645 698.945 634.436 698.836 634.228 698.725 634.054 698.575 633.912 698.388 633.77 698.196 633.617 697.907 633.455 697.516 633.292 697.125 633.154 696.778 633.037 696.48Z" fill="#FFFFFF" fill-rule="evenodd"/><path d="M654.001 692.866C654.001 694.036 653.708 695.087 653.118 696.019 652.531 696.951 651.67 697.682 650.537 698.209 649.404 698.738 648.062 699 646.507 699 644.645 699 643.107 698.641 641.897 697.919 641.04 697.399 640.342 696.708 639.806 695.84 639.268 694.974 639 694.133 639 693.315 639 692.839 639.161 692.434 639.483 692.094 639.806 691.755 640.215 691.587 640.714 691.587 641.117 691.587 641.458 691.718 641.737 691.982 642.016 692.246 642.255 692.637 642.452 693.157 642.692 693.772 642.951 694.286 643.231 694.701 643.51 695.113 643.902 695.454 644.408 695.722 644.915 695.99 645.581 696.126 646.403 696.126 647.537 696.126 648.457 695.855 649.165 695.314 649.874 694.772 650.228 694.097 650.228 693.288 650.228 692.646 650.037 692.125 649.655 691.725 649.273 691.324 648.78 691.019 648.175 690.809 647.57 690.596 646.759 690.373 645.748 690.135 644.392 689.81 643.257 689.43 642.342 688.994 641.429 688.559 640.702 687.965 640.165 687.213 639.63 686.461 639.361 685.527 639.361 684.41 639.361 683.346 639.645 682.399 640.212 681.574 640.777 680.747 641.597 680.111 642.67 679.666 643.744 679.221 645.006 679 646.456 679 647.615 679 648.616 679.148 649.461 679.443 650.308 679.737 651.009 680.129 651.567 680.617 652.125 681.104 652.533 681.617 652.791 682.154 653.049 682.69 653.178 683.213 653.178 683.723 653.178 684.191 653.015 684.61 652.693 684.984 652.372 685.357 651.97 685.543 651.491 685.543 651.053 685.543 650.72 685.432 650.493 685.207 650.265 684.984 650.017 684.616 649.751 684.105 649.409 683.376 648.997 682.806 648.516 682.397 648.035 681.988 647.263 681.785 646.198 681.785 645.211 681.785 644.415 682.006 643.81 682.451 643.205 682.894 642.902 683.43 642.902 684.053 642.902 684.44 643.004 684.775 643.21 685.057 643.416 685.337 643.7 685.578 644.061 685.782 644.422 685.984 644.786 686.143 645.155 686.257 645.525 686.372 646.133 686.538 646.984 686.757 648.048 687.013 649.011 687.295 649.874 687.602 650.737 687.911 651.469 688.284 652.076 688.724 652.681 689.163 653.154 689.719 653.492 690.392 653.832 691.066 654.001 691.891 654.001 692.866Z" fill="#FFFFFF" fill-rule="evenodd"/><path d="M667.588 696.612 667.588 690.478 663.083 683.155C662.688 682.495 662.411 681.981 662.247 681.611 662.082 681.241 662 680.922 662 680.648 662 680.2 662.167 679.813 662.498 679.487 662.83 679.161 663.238 679 663.726 679 664.235 679 664.625 679.15 664.888 679.454 665.155 679.757 665.548 680.363 666.077 681.268L669.526 687.14 673.011 681.268C673.22 680.907 673.398 680.604 673.538 680.357 673.681 680.111 673.839 679.88 674.01 679.666 674.184 679.45 674.372 679.285 674.584 679.171 674.792 679.057 675.048 679 675.349 679 675.821 679 676.214 679.159 676.528 679.48 676.843 679.802 677 680.173 677 680.595 677 680.938 676.918 681.281 676.76 681.626 676.6 681.967 676.327 682.442 675.94 683.049L671.323 690.478 671.323 696.612C671.323 697.412 671.149 698.01 670.797 698.407 670.445 698.802 669.994 699 669.45 699 668.897 699 668.449 698.805 668.104 698.413 667.759 698.021 667.588 697.421 667.588 696.612Z" fill="#FFFFFF" fill-rule="evenodd"/><path d="M702 692.562C702 693.178 701.86 693.844 701.578 694.56 701.295 695.278 700.853 695.98 700.248 696.671 699.646 697.361 698.875 697.922 697.937 698.354 696.999 698.784 695.905 699 694.655 699 693.711 699 692.846 698.902 692.075 698.709 691.297 698.516 690.595 698.214 689.964 697.805 689.329 697.396 688.747 696.859 688.218 696.189 687.742 695.582 687.34 694.903 687.004 694.151 686.672 693.399 686.419 692.597 686.253 691.744 686.083 690.89 686 689.984 686 689.027 686 687.469 686.213 686.076 686.632 684.844 687.051 683.613 687.656 682.56 688.437 681.684 689.222 680.809 690.14 680.143 691.19 679.686 692.245 679.229 693.365 679 694.559 679 696.008 679 697.305 679.312 698.439 679.938 699.573 680.561 700.441 681.334 701.046 682.252 701.651 683.17 701.95 684.04 701.95 684.857 701.95 685.307 701.807 685.701 701.511 686.044 701.219 686.389 700.863 686.558 700.447 686.558 699.982 686.558 699.632 686.441 699.4 686.203 699.167 685.966 698.908 685.557 698.622 684.976 698.146 684.017 697.591 683.301 696.953 682.825 696.311 682.351 695.52 682.113 694.582 682.113 693.089 682.113 691.899 682.725 691.014 683.947 690.13 685.169 689.684 686.907 689.684 689.157 689.684 690.663 689.884 691.913 690.273 692.912 690.665 693.91 691.22 694.655 691.939 695.148 692.657 695.641 693.498 695.886 694.459 695.886 695.506 695.886 696.387 695.607 697.109 695.048 697.834 694.491 698.379 693.669 698.745 692.588 698.901 692.077 699.091 691.663 699.32 691.341 699.549 691.02 699.915 690.859 700.421 690.859 700.853 690.859 701.225 691.024 701.535 691.347 701.844 691.674 702 692.077 702 692.562Z" fill="#FFFFFF" fill-rule="evenodd"/><path d="M719.228 688.947C719.228 687.53 719.01 686.304 718.574 685.266 718.142 684.228 717.519 683.444 716.715 682.911 715.908 682.379 714.982 682.113 713.937 682.113 713.195 682.113 712.507 682.261 711.874 682.555 711.244 682.851 710.703 683.279 710.247 683.84 709.79 684.403 709.433 685.123 709.167 685.998 708.905 686.873 708.772 687.856 708.772 688.947 708.772 690.046 708.905 691.041 709.167 691.928 709.433 692.818 709.804 693.554 710.284 694.138 710.764 694.724 711.316 695.161 711.939 695.451 712.562 695.742 713.243 695.887 713.988 695.887 714.941 695.887 715.816 695.637 716.613 695.134 717.41 694.633 718.047 693.859 718.52 692.812 718.99 691.766 719.228 690.478 719.228 688.947ZM713.937 679C715.844 679 717.478 679.407 718.843 680.22 720.212 681.034 721.243 682.19 721.948 683.69 722.65 685.189 723 686.95 723 688.974 723 690.469 722.806 691.828 722.425 693.05 722.04 694.274 721.461 695.333 720.692 696.23 719.926 697.126 718.979 697.812 717.859 698.287 716.743 698.762 715.459 699 714.012 699 712.575 699 711.288 698.757 710.151 698.268 709.014 697.78 708.068 697.092 707.308 696.203 706.546 695.315 705.971 694.247 705.582 692.999 705.194 691.748 705 690.397 705 688.947 705 687.461 705.204 686.098 705.609 684.857 706.014 683.617 706.6 682.562 707.37 681.691 708.139 680.82 709.075 680.154 710.179 679.691 711.282 679.23 712.534 679 713.937 679Z" fill="#FFFFFF" fill-rule="evenodd"/><path d="M730.994 681.347 738.44 692.747 738.44 681.241C738.44 680.495 738.6 679.934 738.915 679.559 739.23 679.185 739.662 679 740.201 679 740.757 679 741.196 679.185 741.515 679.559 741.841 679.934 742 680.495 742 681.241L742 696.453C742 698.151 741.306 699 739.914 699 739.567 699 739.252 698.95 738.975 698.848 738.696 698.747 738.437 698.586 738.192 698.366 737.948 698.146 737.721 697.889 737.512 697.594 737.307 697.299 737.098 696.999 736.889 696.691L729.624 685.425 729.624 696.756C729.624 697.496 729.457 698.055 729.113 698.432 728.777 698.811 728.341 699 727.81 699 727.264 699 726.825 698.809 726.496 698.425 726.163 698.045 726 697.487 726 696.756L726 681.834C726 681.202 726.067 680.706 726.205 680.345 726.372 679.948 726.648 679.625 727.031 679.375 727.41 679.123 727.824 679 728.267 679 728.614 679 728.915 679.057 729.16 679.17 729.408 679.284 729.627 679.439 729.815 679.632 729.999 679.825 730.19 680.077 730.389 680.384 730.584 680.691 730.785 681.013 730.994 681.347Z" fill="#FFFFFF" fill-rule="evenodd"/><path d="M757.967 682.811 749.678 682.811 749.678 687.231 757.311 687.231C757.873 687.231 758.29 687.356 758.566 687.607 758.846 687.856 758.98 688.185 758.98 688.595 758.98 689.004 758.846 689.338 758.573 689.595 758.301 689.853 757.88 689.981 757.311 689.981L749.678 689.981 749.678 695.101 758.254 695.101C758.832 695.101 759.267 695.236 759.559 695.5 759.852 695.768 760 696.122 760 696.564 760 696.99 759.852 697.336 759.559 697.601 759.267 697.867 758.832 698 758.254 698L748.251 698C747.45 698 746.875 697.824 746.525 697.472 746.172 697.121 746 696.551 746 695.766L746 682.234C746 681.71 746.077 681.281 746.232 680.951 746.39 680.62 746.636 680.379 746.973 680.226 747.306 680.075 747.733 680 748.251 680L757.967 680C758.553 680 758.987 680.128 759.273 680.385 759.559 680.643 759.7 680.981 759.7 681.4 759.7 681.825 759.559 682.166 759.273 682.425 758.987 682.683 758.553 682.811 757.967 682.811Z" fill="#FFFFFF" fill-rule="evenodd"/><path d="M762.881 694.91 766.835 688.591 763.507 682.97C763.192 682.426 762.96 681.958 762.803 681.566 762.645 681.175 762.567 680.798 762.567 680.439 762.567 680.07 762.717 679.737 763.019 679.443 763.32 679.148 763.687 679 764.123 679 764.621 679 765.011 679.161 765.286 679.482 765.564 679.803 765.947 680.399 766.438 681.27L769.092 685.966 771.925 681.27C772.158 680.873 772.358 680.536 772.521 680.254 772.685 679.973 772.846 679.739 773 679.555 773.15 679.37 773.321 679.23 773.511 679.139 773.701 679.046 773.92 679 774.166 679 774.618 679 774.985 679.148 775.273 679.443 775.558 679.737 775.699 680.087 775.699 680.491 775.699 681.081 775.391 681.881 774.772 682.892L771.286 688.591 775.037 694.91C775.375 695.464 775.62 695.924 775.771 696.289 775.925 696.653 776 696.998 776 697.325 776 697.632 775.931 697.914 775.794 698.168 775.659 698.423 775.466 698.627 775.217 698.775 774.968 698.925 774.687 699 774.372 699 774.035 699 773.75 698.923 773.517 698.768 773.285 698.616 773.095 698.423 772.951 698.195 772.806 697.966 772.534 697.521 772.141 696.862L769.03 691.506 765.725 697.021C765.469 697.461 765.286 697.768 765.177 697.945 765.069 698.121 764.938 698.291 764.784 698.459 764.634 698.627 764.453 698.758 764.244 698.854 764.034 698.952 763.789 699 763.507 699 763.071 699 762.714 698.854 762.429 698.565 762.141 698.275 762 697.852 762 697.298 762 696.648 762.295 695.851 762.881 694.91Z" fill="#FFFFFF" fill-rule="evenodd"/><path d="M779 696.612 779 681.373C779 680.582 779.187 679.987 779.552 679.593 779.921 679.196 780.397 679 780.982 679 781.582 679 782.068 679.194 782.441 679.586 782.814 679.977 783 680.573 783 681.373L783 696.612C783 697.412 782.814 698.01 782.441 698.407 782.068 698.802 781.582 699 780.982 699 780.408 699 779.932 698.8 779.559 698.4 779.19 698 779 697.403 779 696.612Z" fill="#FFFFFF" fill-rule="evenodd"/><path d="M800.227 688.947C800.227 687.53 800.012 686.304 799.577 685.266 799.141 684.228 798.521 683.444 797.714 682.911 796.907 682.379 795.984 682.113 794.939 682.113 794.193 682.113 793.505 682.261 792.875 682.555 792.245 682.851 791.701 683.279 791.248 683.84 790.788 684.403 790.43 685.123 790.168 685.998 789.903 686.873 789.773 687.856 789.773 688.947 789.773 690.046 789.903 691.041 790.168 691.928 790.43 692.818 790.801 693.554 791.285 694.138 791.765 694.724 792.317 695.161 792.94 695.451 793.56 695.742 794.244 695.887 794.987 695.887 795.94 695.887 796.815 695.637 797.615 695.134 798.412 694.633 799.045 693.859 799.519 692.812 799.992 691.766 800.227 690.478 800.227 688.947ZM794.939 679C796.843 679 798.48 679.407 799.846 680.22 801.211 681.034 802.247 682.19 802.948 683.69 803.653 685.189 804 686.95 804 688.974 804 690.469 803.81 691.828 803.424 693.05 803.04 694.274 802.464 695.333 801.695 696.23 800.925 697.126 799.982 697.812 798.862 698.287 797.741 698.762 796.457 699 795.014 699 793.577 699 792.29 698.757 791.152 698.268 790.015 697.78 789.068 697.092 788.305 696.203 787.543 695.315 786.971 694.247 786.583 692.999 786.194 691.748 786 690.397 786 688.947 786 687.461 786.201 686.098 786.607 684.857 787.012 683.617 787.601 682.562 788.37 681.691 789.137 680.82 790.073 680.154 791.176 679.691 792.283 679.23 793.532 679 794.939 679Z" fill="#FFFFFF" fill-rule="evenodd"/><path d="M811.993 681.347 819.438 692.747 819.438 681.241C819.438 680.495 819.597 679.934 819.916 679.559 820.234 679.185 820.659 679 821.198 679 821.757 679 822.193 679.185 822.515 679.559 822.837 679.934 823 680.495 823 681.241L823 696.453C823 698.151 822.303 699 820.911 699 820.564 699 820.252 698.95 819.972 698.848 819.696 698.747 819.434 698.586 819.19 698.366 818.949 698.146 818.722 697.889 818.513 697.594 818.304 697.299 818.095 696.999 817.89 696.691L810.627 685.425 810.627 696.756C810.627 697.496 810.456 698.055 810.117 698.432 809.777 698.811 809.345 699 808.813 699 808.268 699 807.825 698.809 807.496 698.425 807.167 698.045 807 697.487 807 696.756L807 681.834C807 681.202 807.071 680.706 807.209 680.345 807.376 679.948 807.648 679.625 808.031 679.375 808.413 679.123 808.828 679 809.27 679 809.617 679 809.915 679.057 810.163 679.17 810.411 679.284 810.63 679.439 810.814 679.632 811.002 679.825 811.193 680.077 811.388 680.384 811.583 680.691 811.784 681.013 811.993 681.347Z" fill="#FFFFFF" fill-rule="evenodd"/><path d="M838.965 682.811 830.681 682.811 830.681 687.231 838.312 687.231C838.874 687.231 839.291 687.356 839.567 687.607 839.843 687.856 839.981 688.185 839.981 688.595 839.981 689.004 839.846 689.338 839.574 689.595 839.301 689.853 838.881 689.981 838.312 689.981L830.681 689.981 830.681 695.101 839.251 695.101C839.83 695.101 840.264 695.236 840.556 695.5 840.852 695.768 841 696.122 841 696.564 841 696.99 840.852 697.336 840.556 697.601 840.264 697.867 839.83 698 839.251 698L829.254 698C828.454 698 827.878 697.824 827.528 697.472 827.175 697.121 827 696.551 827 695.766L827 682.234C827 681.71 827.077 681.281 827.236 680.951 827.394 680.62 827.636 680.379 827.973 680.226 828.306 680.075 828.733 680 829.254 680L838.965 680C839.554 680 839.988 680.128 840.274 680.385 840.556 680.643 840.701 680.981 840.701 681.4 840.701 681.825 840.556 682.166 840.274 682.425 839.988 682.683 839.554 682.811 838.965 682.811Z" fill="#FFFFFF" fill-rule="evenodd"/><path d="M859 692.866C859 694.036 858.707 695.087 858.119 696.019 857.531 696.951 856.671 697.682 855.538 698.209 854.405 698.738 853.058 699 851.505 699 849.645 699 848.106 698.641 846.896 697.919 846.039 697.399 845.339 696.708 844.804 695.84 844.269 694.974 844 694.133 844 693.315 844 692.839 844.161 692.434 844.482 692.094 844.804 691.755 845.213 691.587 845.71 691.587 846.116 691.587 846.459 691.718 846.735 691.982 847.015 692.246 847.252 692.637 847.452 693.157 847.69 693.772 847.952 694.286 848.228 694.701 848.508 695.113 848.9 695.454 849.407 695.722 849.914 695.99 850.578 696.126 851.404 696.126 852.537 696.126 853.457 695.855 854.164 695.314 854.873 694.772 855.227 694.097 855.227 693.288 855.227 692.646 855.038 692.125 854.653 691.725 854.272 691.324 853.779 691.019 853.174 690.809 852.568 690.596 851.757 690.373 850.746 690.135 849.389 689.81 848.256 689.43 847.34 688.994 846.427 688.559 845.7 687.965 845.165 687.213 844.63 686.461 844.36 685.527 844.36 684.41 844.36 683.346 844.644 682.399 845.21 681.574 845.777 680.747 846.598 680.111 847.669 679.666 848.742 679.221 850.005 679 851.456 679 852.614 679 853.614 679.148 854.461 679.443 855.307 679.737 856.01 680.129 856.566 680.617 857.126 681.104 857.531 681.617 857.79 682.154 858.045 682.69 858.175 683.213 858.175 683.723 858.175 684.191 858.014 684.61 857.692 684.984 857.37 685.357 856.968 685.543 856.489 685.543 856.052 685.543 855.716 685.432 855.492 685.207 855.265 684.984 855.017 684.616 854.751 684.105 854.408 683.376 853.995 682.806 853.513 682.397 853.034 681.988 852.261 681.785 851.197 681.785 850.211 681.785 849.414 682.006 848.809 682.451 848.204 682.894 847.899 683.43 847.899 684.053 847.899 684.44 848.004 684.775 848.211 685.057 848.417 685.337 848.701 685.578 849.061 685.782 849.421 685.984 849.784 686.143 850.155 686.257 850.523 686.372 851.135 686.538 851.985 686.757 853.048 687.013 854.01 687.295 854.873 687.602 855.737 687.911 856.472 688.284 857.073 688.724 857.682 689.163 858.154 689.719 858.49 690.392 858.833 691.066 859 691.891 859 692.866Z" fill="#FFFFFF" fill-rule="evenodd"/><path d="M871.794 682.886 871.794 695.102 874.667 695.102C875.298 695.102 875.79 695.085 876.148 695.053 876.508 695.02 876.876 694.938 877.257 694.807 877.642 694.676 877.976 694.493 878.256 694.254 879.522 693.223 880.157 691.448 880.157 688.926 880.157 687.151 879.88 685.82 879.321 684.937 878.766 684.053 878.076 683.489 877.257 683.248 876.442 683.007 875.457 682.886 874.299 682.886L871.794 682.886ZM870.327 680 875.267 680C876.554 680 877.657 680.115 878.576 680.344 879.495 680.573 880.331 681.002 881.076 681.634 883.026 683.238 884 685.676 884 688.951 884 690.031 883.903 691.017 883.709 691.91 883.511 692.802 883.213 693.605 882.8 694.322 882.391 695.038 881.871 695.68 881.233 696.243 880.73 696.677 880.178 697.026 879.585 697.287 878.988 697.55 878.347 697.733 877.663 697.839 876.977 697.947 876.203 698 875.346 698L870.404 698C869.713 698 869.193 697.899 868.846 697.698 868.496 697.498 868.267 697.216 868.163 696.852 868.055 696.488 868 696.014 868 695.434L868 682.236C868 681.45 868.184 680.881 868.551 680.529 868.916 680.176 869.509 680 870.327 680Z" fill="#FFFFFF" fill-rule="evenodd"/><path d="M899.826 682.811 890.945 682.811 890.945 687.231 899.119 687.231C899.721 687.231 900.172 687.356 900.468 687.607 900.767 687.856 900.911 688.185 900.911 688.595 900.911 689.004 900.767 689.338 900.475 689.595 900.183 689.853 899.732 689.981 899.119 689.981L890.945 689.981 890.945 695.101 900.132 695.101C900.752 695.101 901.218 695.236 901.531 695.5 901.845 695.768 902 696.122 902 696.564 902 696.99 901.845 697.336 901.531 697.601 901.218 697.867 900.752 698 900.132 698L889.416 698C888.558 698 887.941 697.824 887.566 697.472 887.187 697.121 887 696.551 887 695.766L887 682.234C887 681.71 887.087 681.281 887.252 680.951 887.422 680.62 887.685 680.379 888.045 680.226 888.402 680.075 888.861 680 889.416 680L899.826 680C900.453 680 900.918 680.128 901.225 680.385 901.531 680.643 901.683 680.981 901.683 681.4 901.683 681.825 901.531 682.166 901.225 682.425 900.918 682.683 900.453 682.811 899.826 682.811Z" fill="#FFFFFF" fill-rule="evenodd"/><path d="M917.221 682.842 914.718 682.842 914.718 688.551 917.221 688.551C918.099 688.551 918.83 688.458 919.418 688.27 920.01 688.084 920.456 687.778 920.769 687.354 921.075 686.929 921.228 686.372 921.228 685.684 921.228 684.859 920.99 684.187 920.517 683.67 919.983 683.118 918.885 682.842 917.221 682.842ZM918.126 691.405 914.718 691.405 914.718 696.695C914.718 697.451 914.541 698.024 914.19 698.415 913.84 698.805 913.398 699 912.864 699 912.306 699 911.854 698.809 911.513 698.422 911.17 698.036 911 697.468 911 696.721L911 682.319C911 681.486 911.187 680.892 911.565 680.535 911.939 680.178 912.534 680 913.354 680L918.126 680C919.534 680 920.619 680.11 921.381 680.331 922.133 680.543 922.779 680.895 923.327 681.389 923.874 681.883 924.289 682.485 924.575 683.199 924.858 683.911 925 684.714 925 685.606 925 687.51 924.422 688.953 923.272 689.933 922.119 690.915 920.402 691.405 918.126 691.405Z" fill="#FFFFFF" fill-rule="evenodd"/><path d="M930.934 681.572 935.068 694.542 939.215 681.481C939.431 680.793 939.594 680.316 939.702 680.048 939.81 679.781 939.989 679.538 940.236 679.323 940.487 679.107 940.825 679 941.258 679 941.573 679 941.867 679.084 942.137 679.25 942.405 679.418 942.618 679.639 942.77 679.916 942.926 680.195 943 680.474 943 680.754 943 680.947 942.977 681.158 942.926 681.381 942.875 681.606 942.814 681.824 942.74 682.04 942.665 682.256 942.591 682.479 942.516 682.706L938.095 695.345C937.94 695.829 937.781 696.288 937.621 696.724 937.463 697.16 937.28 697.542 937.073 697.873 936.864 698.201 936.59 698.473 936.245 698.684 935.9 698.894 935.48 699 934.98 699 934.482 699 934.063 698.896 933.718 698.691 933.373 698.484 933.092 698.211 932.883 697.873 932.669 697.533 932.487 697.15 932.328 696.717 932.172 696.287 932.013 695.829 931.858 695.345L927.511 682.812C927.437 682.583 927.359 682.36 927.277 682.14 927.2 681.92 927.132 681.682 927.081 681.427 927.027 681.172 927 680.956 927 680.781 927 680.332 927.169 679.924 927.511 679.554 927.849 679.184 928.275 679 928.793 679 929.422 679 929.869 679.203 930.129 679.612 930.393 680.022 930.66 680.675 930.934 681.572Z" fill="#FFFFFF" fill-rule="evenodd"/><path d="M962 692.562C962 693.178 961.848 693.844 961.552 694.56 961.251 695.278 960.781 695.98 960.139 696.671 959.499 697.361 958.679 697.922 957.683 698.354 956.683 698.784 955.521 699 954.196 699 953.189 699 952.274 698.902 951.451 698.709 950.628 698.516 949.879 698.214 949.208 697.805 948.537 697.396 947.918 696.859 947.353 696.189 946.851 695.582 946.424 694.903 946.067 694.151 945.71 693.399 945.442 692.597 945.268 691.744 945.088 690.89 945 689.984 945 689.027 945 687.469 945.222 686.076 945.671 684.844 946.116 683.613 946.756 682.56 947.59 681.684 948.42 680.809 949.395 680.143 950.515 679.686 951.631 679.229 952.825 679 954.09 679 955.634 679 957.008 679.312 958.213 679.938 959.421 680.561 960.343 681.334 960.986 682.252 961.626 683.17 961.947 684.04 961.947 684.857 961.947 685.307 961.792 685.701 961.481 686.044 961.166 686.389 960.788 686.558 960.347 686.558 959.852 686.558 959.485 686.441 959.234 686.203 958.987 685.966 958.711 685.557 958.407 684.976 957.906 684.017 957.312 683.301 956.634 682.825 955.952 682.351 955.115 682.113 954.118 682.113 952.532 682.113 951.267 682.725 950.328 683.947 949.384 685.169 948.914 686.907 948.914 689.157 948.914 690.663 949.123 691.913 949.54 692.912 949.953 693.91 950.543 694.655 951.306 695.148 952.073 695.641 952.963 695.886 953.988 695.886 955.097 695.886 956.037 695.607 956.803 695.048 957.57 694.491 958.149 693.669 958.538 692.588 958.704 692.077 958.909 691.663 959.149 691.341 959.393 691.02 959.785 690.859 960.322 690.859 960.781 690.859 961.177 691.024 961.506 691.347 961.834 691.674 962 692.077 962 692.562Z" fill="#FFFFFF" fill-rule="evenodd"/></g></svg>